<?xml version="1.0" encoding="iso-8859-1"?>
<!-- Generator: Adobe Illustrator 19.0.0, SVG Export Plug-In . SVG Version: 6.00 Build 0)  -->
<svg version="1.1" id="Capa_1" xmlns="http://www.w3.org/2000/svg" xmlns:xlink="http://www.w3.org/1999/xlink" x="0px" y="0px"
	 viewBox="0 0 512 512" style="enable-background:new 0 0 512 512;" xml:space="preserve">
<path style="fill:#AE8B70;" d="M39.565,256c0,87.878,18.891,168.358,50.233,230.923c5.422,10.823,16.558,17.576,28.663,17.576
	H393.54c12.105,0,23.241-6.754,28.663-17.576c31.341-62.565,50.233-143.045,50.233-230.923S453.544,87.642,422.203,25.077
	C416.781,14.254,405.645,7.5,393.54,7.5H118.46c-12.105,0-23.241,6.754-28.663,17.576C58.456,87.642,39.565,168.122,39.565,256z"/>
<path style="fill:#9B735A;" d="M159.807,256c0-48.637,2.634-94.885,7.299-137.194c0.448-4.066,3.904-7.096,7.995-7.096H454.2
	c-2.154-8.19-4.497-16.189-6.996-24.048H171.02c3.152-22.291,6.834-43.368,11.112-62.585c2.41-10.823,7.359-17.577,12.739-17.577
	H118.46c-12.104,0-23.24,6.753-28.661,17.575C58.457,87.64,39.565,168.121,39.565,256s18.892,168.359,50.234,230.925
	c5.421,10.822,16.557,17.575,28.661,17.575h76.411c-5.38,0-10.329-6.754-12.739-17.576c-0.464-2.085-0.87-4.348-1.321-6.472h244.365
	c3.717-7.769,7.247-15.777,10.577-24.048H176.11C165.85,399.063,159.807,330.241,159.807,256z"/>
<path style="fill:#AFB9D2;" d="M64.797,87.661h382.406c-3.509-11.029-7.298-21.751-11.45-32.064H76.247
	C72.095,65.911,68.306,76.633,64.797,87.661z"/>
<path style="fill:#959CB5;" d="M76.247,55.597c-4.152,10.314-7.941,21.036-11.45,32.064h106.224
	c1.559-11.029,3.243-21.751,5.088-32.064C176.109,55.597,76.247,55.597,76.247,55.597z"/>
<path style="fill:#AFB9D2;" d="M64.797,424.339h382.406c-3.509,11.029-7.298,21.751-11.45,32.064H76.247
	C72.095,446.089,68.306,435.367,64.797,424.339z"/>
<path style="fill:#959CB5;" d="M76.247,456.403c-4.152-10.314-7.941-21.036-11.45-32.064h106.224
	c1.559,11.029,3.243,21.751,5.088,32.064H76.247z"/>
<path d="M428.908,21.718C422.198,8.322,408.646,0,393.54,0H118.46c-15.106,0-28.659,8.322-35.369,21.717
	C50.186,87.405,32.064,170.608,32.064,256s18.122,168.595,51.027,234.282C89.802,503.678,103.354,512,118.46,512h275.08
	c15.106,0,28.659-8.322,35.369-21.717c32.906-65.688,51.027-148.891,51.027-234.283S461.814,87.405,428.908,21.718z
	 M441.845,416.822H407.19c10.892-49.729,16.633-105.101,16.633-160.822c0-55.726-5.743-111.104-16.637-160.839h34.654
	c15.057,49.501,23.095,104.643,23.095,160.839C464.936,312.19,456.899,367.325,441.845,416.822z M430.797,448.886H81.204
	c-2.169-5.597-4.246-11.284-6.218-17.064h52.757c4.142,0,7.5-3.358,7.5-7.5s-3.358-7.5-7.5-7.5h-7.552
	C109.062,367.314,103.177,311.867,103.177,256c0-55.874,5.886-111.326,17.017-160.839h70.877c-4.385,49.675-6.7,105.073-6.7,160.839
	c0,55.764,2.314,111.156,6.698,160.822h-31.263c-4.142,0-7.5,3.358-7.5,7.5s3.358,7.5,7.5,7.5h277.208
	C435.042,437.602,432.966,443.289,430.797,448.886z M357.881,497h-47.123c0.746-2.561,1.394-5.526,1.906-8.976
	c1.15-7.749,2.25-15.848,3.286-24.138h63.157c-2.236,6.996-4.582,13.844-7.025,20.428C369.222,492.021,363.648,497,357.881,497z
	 M217.254,497c-0.834-1.532-2.16-4.978-3.081-11.178c-1.048-7.063-2.055-14.415-3.007-21.936h89.667
	c-0.953,7.527-1.96,14.879-3.008,21.936c-0.92,6.2-2.246,9.645-3.08,11.178H217.254z M154.119,497
	c-5.767,0-11.341-4.979-14.2-12.686c-2.444-6.587-4.791-13.435-7.026-20.428h63.157c1.035,8.283,2.135,16.381,3.286,24.138
	c0.512,3.449,1.16,6.414,1.906,8.976H154.119z M81.21,63.097h262.97c4.142,0,7.5-3.358,7.5-7.5s-3.358-7.5-7.5-7.5h-28.232
	c-1.035-8.282-2.134-16.375-3.284-24.121c-0.512-3.449-1.16-6.414-1.906-8.976h47.123c5.767,0,11.341,4.979,14.2,12.686
	c2.442,6.582,4.786,13.424,7.02,20.411h-2.862c-4.142,0-7.5,3.358-7.5,7.5s3.358,7.5,7.5,7.5h54.55
	c2.169,5.597,4.246,11.284,6.219,17.064H74.991C76.964,74.381,79.041,68.694,81.21,63.097z M154.119,15h47.123
	c-0.746,2.561-1.394,5.526-1.906,8.976c-1.15,7.746-2.249,15.839-3.284,24.121h-63.154c2.233-6.986,4.578-13.828,7.02-20.411
	C142.778,19.979,148.352,15,154.119,15z M294.746,15c0.834,1.532,2.16,4.978,3.081,11.178c1.047,7.053,2.053,14.399,3.005,21.918
	h-89.663c0.952-7.519,1.958-14.865,3.005-21.919c0.92-6.2,2.246-9.646,3.08-11.178h77.492V15z M320.931,416.822
	c4.384-49.666,6.698-105.058,6.698-160.822c0-35.629-0.919-70.826-2.733-104.612c-0.222-4.136-3.756-7.305-7.891-7.087
	c-4.136,0.222-7.31,3.755-7.087,7.891c1.799,33.521,2.711,68.447,2.711,103.809c0,55.829-2.337,111.251-6.759,160.822h-99.74
	c-4.422-49.57-6.759-104.992-6.759-160.822c0-55.831,2.338-111.259,6.761-160.839h99.74c0.733,8.215,1.416,16.626,2.033,25.104
	c0.287,3.946,3.577,6.957,7.472,6.957c0.183,0,0.367-0.007,0.552-0.02c4.131-0.301,7.237-3.894,6.937-8.024
	c-0.589-8.1-1.238-16.145-1.933-24.016h70.873c11.13,49.512,17.017,104.964,17.017,160.839c0,55.869-5.885,111.315-17.013,160.822
	h-70.879V416.822z M415.497,28.436c3.198,6.383,6.244,12.947,9.15,19.661h-29.824c-2.723-8.797-5.627-17.403-8.679-25.629
	c-0.998-2.69-2.238-5.183-3.666-7.467h11.06C402.932,15,411.346,20.148,415.497,28.436z M96.503,28.436
	C100.654,20.148,109.068,15,118.46,15h11.061c-1.428,2.284-2.668,4.778-3.666,7.468c-3.052,8.227-5.956,16.833-8.679,25.629H87.353
	C90.259,41.383,93.305,34.819,96.503,28.436z M70.16,95.161h34.654C93.921,144.896,88.177,200.274,88.177,256
	c0,55.719,5.742,111.092,16.633,160.822H70.155C55.101,367.325,47.064,312.19,47.064,256
	C47.064,199.804,55.103,144.662,70.16,95.161z M96.503,483.564c-3.2-6.389-6.249-12.958-9.157-19.678h29.826
	c2.724,8.804,5.63,17.416,8.684,25.646c0.998,2.69,2.238,5.183,3.666,7.467h-11.06C109.068,497,100.654,491.852,96.503,483.564z
	 M415.497,483.564C411.346,491.852,402.932,497,393.54,497h-11.061c1.428-2.284,2.668-4.778,3.666-7.468
	c3.052-8.226,5.958-16.838,8.684-25.646h29.826C421.746,470.606,418.697,477.176,415.497,483.564z"/>
<g>
</g>
<g>
</g>
<g>
</g>
<g>
</g>
<g>
</g>
<g>
</g>
<g>
</g>
<g>
</g>
<g>
</g>
<g>
</g>
<g>
</g>
<g>
</g>
<g>
</g>
<g>
</g>
<g>
</g>
</svg>
