<svg xmlns="http://www.w3.org/2000/svg" width="220" height="220" viewBox="0 0 220 220"><g transform="translate(-714 -461)"><g transform="translate(714 461)" fill="none" stroke="#fff" stroke-width="7"><circle cx="110" cy="110" r="110" stroke="none"/><circle cx="110" cy="110" r="106.5" fill="none"/></g><g transform="translate(1122 677.49)"><path d="M117.656,211.753v-9.725a10.905,10.905,0,0,0-6.031-9.745V171.876a12.528,12.528,0,0,0-12.514-12.514H20.889A12.528,12.528,0,0,0,8.375,171.876v20.406a10.905,10.905,0,0,0-6.031,9.745v9.725A2.344,2.344,0,0,0,0,214.1v12.447a2.344,2.344,0,0,0,2.344,2.344H8.786v8.083a2.344,2.344,0,0,0,2.344,2.344H29.037a2.344,2.344,0,0,0,2.344-2.344v-8.083H88.619v8.083a2.344,2.344,0,0,0,2.344,2.344h17.907a2.344,2.344,0,0,0,2.344-2.344v-8.083h6.443A2.344,2.344,0,0,0,120,226.543V214.1a2.344,2.344,0,0,0-2.344-2.344ZM13.063,191.132V171.876a7.836,7.836,0,0,1,7.827-7.827H99.111a7.836,7.836,0,0,1,7.827,7.827v19.256H99.49V173.16a2.344,2.344,0,0,0-2.344-2.344H66.952a2.344,2.344,0,0,0-2.344,2.344v17.973H55.392V173.16a2.344,2.344,0,0,0-2.344-2.344H22.854a2.344,2.344,0,0,0-2.344,2.344v17.973Zm81.739,0H69.3V175.5H94.8v15.629Zm-44.1,0H25.2V175.5H50.7v15.629ZM7.031,202.027a6.214,6.214,0,0,1,6.207-6.207h93.523a6.214,6.214,0,0,1,6.207,6.207v9.725H7.031Zm19.663,32.6H13.474v-5.74h13.22v5.74Zm79.832,0H93.306v-5.74h13.22Zm8.786-10.427H4.687V216.44H115.312Z" transform="translate(-358 -306)" fill="#fff"/></g></g></svg>