<svg xmlns="http://www.w3.org/2000/svg" width="361" height="361" viewBox="0 0 361 361"><g transform="translate(270 -817)"><g transform="translate(-270 817)"><circle cx="180.5" cy="180.5" r="180.5" fill="#76c2af"/></g><g transform="translate(-198 906)"><g transform="translate(2 8)"><path d="M176.622,42.467a27.648,27.648,0,0,1-8.172-17.056,3.778,3.778,0,0,0-3.553-3.2H145.709a77.621,77.621,0,0,0-89.542,0H36.979a3.778,3.778,0,0,0-3.553,3.2,29.778,29.778,0,0,1-6.751,15.634A27.718,27.718,0,0,1,8.2,50.639a3.185,3.185,0,0,0-3.2,3.2v74.974H35.558a77.916,77.916,0,0,0,130.76,0h30.558V53.837a3.778,3.778,0,0,0-3.2-3.553C187.282,49.928,181.241,46.73,176.622,42.467Z" transform="translate(5.66 -8)" fill="#ffe0b2"/><path d="M95.831,152.13c-24.162,0-46.192-12.081-59.695-32.335L34,116.6H7V51.928A35.794,35.794,0,0,0,34.715,24.213H53.192l1.777-1.421a71.662,71.662,0,0,1,81.725,0l1.777,1.421h18.477a35.794,35.794,0,0,0,27.715,27.715V116.6h-27l-2.132,3.2C142.024,140.049,119.993,152.13,95.831,152.13Z" transform="translate(10.766 -2.893)" fill="#fff3e0"/><g transform="translate(37.881 58.234)"><path d="M16.708,57.118A3.409,3.409,0,0,1,12.8,52.854a69.392,69.392,0,0,0,1.066-12.081A69.392,69.392,0,0,0,12.8,28.692c-.355-2.487,1.421-4.619,3.909-4.264A197.359,197.359,0,0,0,45.845,26.56a197.36,197.36,0,0,0,29.137-2.132,3.409,3.409,0,0,1,3.909,4.264,66.451,66.451,0,0,0-1.066,12.081A66.451,66.451,0,0,0,78.89,52.854c.355,2.487-1.421,4.619-3.909,4.264a200.166,200.166,0,0,0-58.273,0Z" transform="translate(-12.661 -24.389)" fill="#30abe4"/><path d="M36.708,57.118A3.409,3.409,0,0,1,32.8,52.854a69.392,69.392,0,0,0,1.066-12.081A69.392,69.392,0,0,0,32.8,28.692c-.355-2.487,1.421-4.619,3.909-4.264A197.359,197.359,0,0,0,65.845,26.56a197.359,197.359,0,0,0,29.137-2.132,3.409,3.409,0,0,1,3.909,4.264,66.451,66.451,0,0,0-1.066,12.081A66.451,66.451,0,0,0,98.89,52.854c.355,2.487-1.421,4.619-3.909,4.264a200.167,200.167,0,0,0-58.273,0Z" transform="translate(38.404 -24.389)" fill="#30abe4"/></g><path d="M213.774,76.7h0s-4.619-8.528-5.685-11.726c-2.487-6.041-8.172-24.517-8.172-24.517A11.033,11.033,0,0,0,189.967,33H27.583a10.234,10.234,0,0,0-9.949,7.462S11.949,59.294,9.462,64.979C8.4,67.822,3.777,76.7,3.777,76.7h0A9.3,9.3,0,0,0,2,82.746,13.812,13.812,0,0,0,7.33,93.761a13.812,13.812,0,0,0,5.33-11.015H18.7V64.979H198.85V82.746h5.685a13.812,13.812,0,0,0,5.33,11.015,13.812,13.812,0,0,0,5.33-11.015A11.679,11.679,0,0,0,213.774,76.7Z" transform="translate(-2 55.831)" fill="#296987"/><g transform="translate(17.766 156.343)"><path d="M14.107,62.66H7V52H17.66Z" transform="translate(-7 -52)" fill="#6d4c41"/><path d="M57.553,62.66H64.66V52H54Z" transform="translate(113.003 -52)" fill="#6d4c41"/></g><path d="M193.322,77.533H8.553A3.357,3.357,0,0,1,5,73.979V45.553A3.357,3.357,0,0,1,8.553,42H193.322a3.357,3.357,0,0,1,3.553,3.553V73.979A3.357,3.357,0,0,1,193.322,77.533Z" transform="translate(5.66 78.811)" fill="#ffcc80"/></g></g></g></svg>