<svg xmlns="http://www.w3.org/2000/svg" width="361" height="361" viewBox="0 0 361 361"><g transform="translate(-265 -817)"><g transform="translate(265 817)"><circle cx="180.5" cy="180.5" r="180.5" fill="#76c2af"/></g><g transform="translate(237.74 852.762)"><g transform="translate(94.45 49.238)"><path d="M100.8,136.407s-.144,8.916.1-32.858,80.481-67.21,80.481-36.218c0,37.549.542,67.711.542,67.711" transform="translate(-99.175 -51.289)" fill="#39272e"/><line y2="29.147" transform="translate(211.221 113.566)" fill="none" stroke="#362e18" stroke-miterlimit="10" stroke-width="13.17"/><line y2="36.705" transform="translate(138.906 152.685)" fill="none" stroke="#362e18" stroke-miterlimit="10" stroke-width="17.57"/><path d="M100.95,172.109s-.247-28.8,0-70.578,80.069-70.207,80.46-36.218c0,37.542.542,67.711.542,67.711" transform="translate(-99.201 -50.238)" fill="none" stroke="#362e18" stroke-miterlimit="10" stroke-width="12.13"/><path d="M98.45,185.887,237.356,247.9V227.66L98.58,161.17" transform="translate(-98.45 -85.091)" fill="#0094da"/><path d="M98.64,141.672l138.775,66.49,78.849-46.3L183.2,99.11Z" transform="translate(-98.51 -65.593)" fill="#0094da"/><path d="M157.495,193.548l.754-23.338,83.066-46.43-13.552-4.52L144.19,164.435l.754,23.592Z" transform="translate(-112.821 -71.924)" fill="#fff"/><path d="M244.894,124.39,163.57,172.1l.014,23.057,90.35,46.931,82.73-52.047L336,156.26Z" transform="translate(-118.91 -73.535)" fill="#204167"/><path d="M102.38,142.4a11.18,11.18,0,0,0,1.543.871c19.683,7.8,43.3-.494,62.505-7.866,8.916-3.429,19.066-8.079,26.747-13.538,5.439-3.861,10.863-5.144,19.025-10.04,15.836-12.214-13.559-24.415-23.812-24-17.283.686-27.714,7.736-49.207,18.449-15.047,7.469-33.447,15.65-39.181,31.733" transform="translate(-98.937 -62.044)" fill="#0094da"/><path d="M111.57,155.263c1.228,3.477,8.148,7.421,11.467,9.1a29.333,29.333,0,0,0,14.279,3.018c.885-4.225-5.98-9.677-9.259-11.659a24.727,24.727,0,0,0-17.427-3.079" transform="translate(-102.277 -82.284)" fill="#fff"/></g></g></g></svg>