<svg xmlns="http://www.w3.org/2000/svg" width="128" height="128" viewBox="0 0 128 128"><circle cx="64" cy="64" r="64" fill="#eee"/><path d="M105,40.8V87.2a4.031,4.031,0,0,1-1.345,3.036l-.122.122a4.092,4.092,0,0,1-2.669.978H27.136a4.078,4.078,0,0,1-2.648-.978.346.346,0,0,1-.122-.122A4.048,4.048,0,0,1,23,87.2V40.8a3.946,3.946,0,0,1,1.1-2.771,3.824,3.824,0,0,1,1.039-.856,4.154,4.154,0,0,1,2-.509h73.729A4.324,4.324,0,0,1,103.92,38,4.168,4.168,0,0,1,105,40.8Z" fill="#f6b863"/><path d="M103.638,37.736,71.2,63.985l-3.249,2.67L64,69.88l-4.03-3.213L56.7,64.046,24.1,38.025,64,64.009Z" fill="#b8874f"/><path d="M103.655,90.24l-.122.122L67.514,66.343a2.681,2.681,0,0,0,.407-.428A2.388,2.388,0,0,0,69.1,64.774a2.471,2.471,0,0,0,1.08-.9h.9Z" fill="#b8874f"/><path d="M60.384,66.4l-35.9,23.958a.346.346,0,0,1-.122-.122L56.9,63.878h1a2.412,2.412,0,0,0,1.12,1.345A2.331,2.331,0,0,0,60.384,66.4Z" fill="#b8874f"/></svg>