<svg xmlns="http://www.w3.org/2000/svg" width="64" height="64" viewBox="0 0 64 64"><g transform="translate(-0.41 -0.41)"><circle cx="32" cy="32" r="32" transform="translate(0.41 0.41)" fill="#028090"/><path d="M146.228,136.781a22.23,22.23,0,0,1-9.846-2.251,2.017,2.017,0,0,0-2.7.934l-1.45,3a28.353,28.353,0,0,1-10.458-10.458l3-1.45a2.017,2.017,0,0,0,.934-2.7,22.154,22.154,0,0,1-2.255-9.846A2.014,2.014,0,0,0,121.447,112h-7.434A2.014,2.014,0,0,0,112,114.013a34.267,34.267,0,0,0,34.228,34.228,2.014,2.014,0,0,0,2.013-2.013v-7.434A2.014,2.014,0,0,0,146.228,136.781Z" transform="translate(-97.925 -97.925)" fill="#fafafa"/></g></svg>