<svg height="512" viewBox="0 0 60 51" width="512" xmlns="http://www.w3.org/2000/svg"><g id="Page-1" fill="none" fill-rule="evenodd"><g id="029---Wine-Corks" fill-rule="nonzero" transform="translate(0 -1)"><path id="Shape" d="m30.92 18c.66-4.21-.31-10.26-2.31-13.26-1.0226707-1.2260831-2.4041966-2.10046661-3.95-2.5-.954083-.33354889-1.9340794-.5877459-2.93-.76-1.8902254-.34309704-3.8090368-.50383517-5.73-.48-1.9189436-.01080747-3.8344634.16333069-5.72.52-.9959206.1722541-1.97591696.42645111-2.93.76-1.54580339.39953339-2.92732934 1.2739169-3.95 2.5-2 3-3 9-2.31 13.26.28027439 1.8251361 1.27735698 3.4629433 2.77 4.55l-1.72 10.12-.14.77v.05c-.00544446.029753-.00544446.060247 0 .09 0 3.52 6.27 6.38 14 6.38 1.0018899.0006325 2.0031701-.0494315 3-.15.32-5.54 2.65-9.85 5.5-9.85h4.9l-1.25-7.41c1.501714-1.0964348 2.499827-2.7503476 2.77-4.59z" fill="#e4c05c"/><path id="Shape" d="m29 6c0 1.26-1.21 2.4-3.2 3.29-.8633546.37131152-1.7565294.66903645-2.67.89-2.3344008.5626964-4.728807.8380699-7.13.82-2.4012251.0186708-4.7957044-.2567111-7.13-.82-.9098095-.22240129-1.7995435-.52009424-2.66-.89-2-.89-3.21-2.03-3.21-3.29l.1-.61c.0698379-.21503575.16732062-.42008561.29-.61 1.03580911-1.2349052 2.43607897-2.11007386 4-2.5.95408304-.33354889 1.9340794-.5877459 2.93-.76 1.8724117-.35411878 3.7744141-.52824577 5.68-.52 1.9222487-.01064454 3.8410708.16348941 5.73.52.9959206.1722541 1.975917.42645111 2.93.76 1.5458034.39953339 2.9273293 1.2739169 3.95 2.5.1226794.18991439.2201621.39496425.29.61z" fill="#f9eab0"/><path id="Shape" d="m19 39.85c-.9968299.1005685-1.9981101.1506325-3 .15-7.73 0-14-2.86-14-6.38-.00544446-.029753-.00544446-.060247 0-.09v-.05l.13-.77 1.72-10.12c3.29 2.52 8.7 2.91 12.15 2.91s8.86-.39 12.15-2.91l1.25 7.41z" fill="#b19046"/><path id="Shape" d="m11.89 3.45c-.1694502.33627965-.5134418.5488587-.89.55-.1568771.00187716-.3116796-.03596343-.45-.11l-3.21-1.61c.95408304-.33354889 1.9340794-.5877459 2.93-.76l1.17.59c.4940809.2459531.6954836.8456857.45 1.34z" fill="#e4c05c"/><path id="Shape" d="m24.66 2.28-3.21 1.61c-.1383204.07403657-.2931229.11187716-.45.11-.3765582-.0011413-.7205498-.21372035-.89-.55-.2469243-.49165355-.050313-1.09042437.44-1.34l1.18-.59c.9959206.1722541 1.975917.42645111 2.93.76z" fill="#e4c05c"/><path id="Shape" d="m11.45 8.89-2.58 1.29c-.9098095-.22240129-1.7995435-.52009424-2.66-.89l4.35-2.18c.4835272-.20135037 1.0404963.00451411 1.2768341.47193782.2363378.4674237.0719586 1.03801484-.3768341 1.30806218z" fill="#e4c05c"/><path id="Shape" d="m25.8 9.29c-.8633546.37131152-1.7565294.66903645-2.67.89l-2.58-1.29c-.3460386-.1440974-.5824323-.46961514-.6123817-.84325912-.0299494-.37364399.1515756-.73265995.4702434-.93003682.3186678-.19737686.7209575-.19996479 1.0421383-.00670406z" fill="#e4c05c"/><path id="Shape" d="m9 21h-.2c-1.67296232-.2204656-3.17575679-1.1352101-4.14-2.52-.68522759-1.1108862-.92124932-2.4411905-.66-3.72.13254834-.5522847.68771525-.8925483 1.24-.76s.89254834.6877153.76 1.24c-.13842328.7466916.00024123 1.5182351.39 2.17.68211613.8893336 1.69638876 1.4632458 2.81 1.59.55228475.0552285.9552285.5477153.9 1.1s-.54771525.9552285-1.1.9z" fill="#f5efca"/><path id="Shape" d="m53.5 30h-29c-2.85 0-5.18 4.31-5.47 9.85v1.15c0 6.08 2.46 11 5.5 11h29c3 0 5.5-4.92 5.5-11s-2.49-11-5.53-11z" fill="#e4c05c"/><ellipse id="Oval" cx="53.5" cy="41" fill="#b19046" rx="5.5" ry="11"/><g fill="#805333"><path id="Shape" d="m34 36h-5c-.5522847 0-1-.4477153-1-1s.4477153-1 1-1h5c.5522847 0 1 .4477153 1 1s-.4477153 1-1 1z"/><path id="Shape" d="m28 40h-5c-.5522847 0-1-.4477153-1-1s.4477153-1 1-1h5c.5522847 0 1 .4477153 1 1s-.4477153 1-1 1z"/><path id="Shape" d="m33 44h-5c-.5522847 0-1-.4477153-1-1s.4477153-1 1-1h5c.5522847 0 1 .4477153 1 1s-.4477153 1-1 1z"/><path id="Shape" d="m29 48h-5c-.5522847 0-1-.4477153-1-1s.4477153-1 1-1h5c.5522847 0 1 .4477153 1 1s-.4477153 1-1 1z"/><path id="Shape" d="m45 36h-5c-.5522847 0-1-.4477153-1-1s.4477153-1 1-1h5c.5522847 0 1 .4477153 1 1s-.4477153 1-1 1z"/><path id="Shape" d="m39 40h-5c-.5522847 0-1-.4477153-1-1s.4477153-1 1-1h5c.5522847 0 1 .4477153 1 1s-.4477153 1-1 1z"/><path id="Shape" d="m44 44h-5c-.5522847 0-1-.4477153-1-1s.4477153-1 1-1h5c.5522847 0 1 .4477153 1 1s-.4477153 1-1 1z"/><path id="Shape" d="m40 48h-5c-.5522847 0-1-.4477153-1-1s.4477153-1 1-1h5c.5522847 0 1 .4477153 1 1s-.4477153 1-1 1z"/><path id="Shape" d="m52 41c-.5522847 0-1-.4477153-1-1v-4c0-.5522847.4477153-1 1-1s1 .4477153 1 1v4c0 .5522847-.4477153 1-1 1z"/><path id="Shape" d="m55 47c-.5522847 0-1-.4477153-1-1v-4c0-.5522847.4477153-1 1-1s1 .4477153 1 1v4c0 .5522847-.4477153 1-1 1z"/></g><path id="Shape" d="m2 33.62h-.01l.02-.09" fill="#e4c05c"/><path id="Shape" d="m2.14 32.71c-.07796997.2496032-.12170244.5086339-.13.77" fill="#e4c05c"/></g></g></svg>