<svg xmlns="http://www.w3.org/2000/svg" width="62" height="62.254" viewBox="0 0 62 62.254">
  <g id="purple" transform="translate(-1 -0.746)">
    <g id="Group_1" data-name="Group 1">
      <path id="Path_1" data-name="Path 1" d="M11.08,54.11A4.972,4.972,0,0,1,12,57a5.26,5.26,0,0,1-.08.89.185.185,0,0,1-.02.07,4.993,4.993,0,1,1-.88-3.93A.555.555,0,0,1,11.08,54.11Z" fill="#404c71"/>
      <path id="Path_2" data-name="Path 2" d="M35.4,41.37a5.989,5.989,0,0,0-4.42-3.28L31,38V37a4.8,4.8,0,0,0-.07-.85,5.967,5.967,0,0,0-2.86-4.3A4.8,4.8,0,0,1,28,31a5.374,5.374,0,0,1,.04-.7,5.977,5.977,0,0,1,2.37-4.1,5.41,5.41,0,0,1,1.45-.8,1.829,1.829,0,0,1,.25-.08A5.64,5.64,0,0,1,34,25a6.007,6.007,0,0,1,5.15,2.92c.05.09.1.17.15.26A5.95,5.95,0,0,1,40,31v2l.01.09c-.14.02-.28.05-.42.08a6,6,0,0,0-4.18,3.66A5.778,5.778,0,0,0,35,39a6.071,6.071,0,0,0,.47,2.34Z" fill="#404c71"/>
      <path id="Path_3" data-name="Path 3" d="M21,55a4.619,4.619,0,0,1-.1.99,5.053,5.053,0,0,1-9,1.97.185.185,0,0,0,.02-.07A5.26,5.26,0,0,0,12,57a4.972,4.972,0,0,0-.92-2.89.555.555,0,0,0-.06-.08,5.033,5.033,0,0,1,1.71-2.88c.13-.1.27-.2.41-.3a5.035,5.035,0,0,1,1.88-.76,4.833,4.833,0,0,1,.94-.09,4.978,4.978,0,0,1,3.02,1,5.039,5.039,0,0,1,1.01,1A4.886,4.886,0,0,1,21,55Z" fill="#404c71"/>
      <path id="Path_4" data-name="Path 4" d="M24,46.89a4.922,4.922,0,0,0-4.43-4.85h-.01l.01-.1a4.671,4.671,0,0,0,.41-1.74,1.274,1.274,0,0,0,.02-.27,4.824,4.824,0,0,0-1-2.96A6,6,0,0,1,25,31a6,6,0,0,1,5.93,5.15A4.8,4.8,0,0,1,31,37v1l-.02.09a.235.235,0,0,0-.08-.02A5.293,5.293,0,0,0,30,38a6,6,0,0,0-5.9,4.91,5.323,5.323,0,0,0-.1,1.07A5.893,5.893,0,0,0,25.57,48v.04A3.642,3.642,0,0,0,25,48a4.662,4.662,0,0,0-1.13.13V48A4.443,4.443,0,0,0,24,46.89Z" fill="#404c71"/>
      <path id="Path_5" data-name="Path 5" d="M34,25a5.64,5.64,0,0,0-1.89.32L32,25V24a6.909,6.909,0,0,0-2.06-4.94L30,19a6.569,6.569,0,0,1,7.91-3.73A6.977,6.977,0,0,1,43,22a6.974,6.974,0,0,1-3.85,5.92A6.007,6.007,0,0,0,34,25Z" fill="#404c71"/>
      <path id="Path_6" data-name="Path 6" d="M35.4,41.37a6.025,6.025,0,0,1,.6,2.61V44a6,6,0,0,0-6,6,5.836,5.836,0,0,0,.23,1.63l-.39.1a5.015,5.015,0,0,0-.92-1.83,4.911,4.911,0,0,0-3.34-1.86h-.01V48A5.893,5.893,0,0,1,24,43.98a5.323,5.323,0,0,1,.1-1.07A6,6,0,0,1,30,38a5.293,5.293,0,0,1,.9.07.235.235,0,0,1,.08.02,5.99,5.99,0,0,1,4.42,3.28Z" fill="#404c71"/>
      <path id="Path_7" data-name="Path 7" d="M25.58,48.04a4.911,4.911,0,0,1,3.34,1.86,5.015,5.015,0,0,1,.92,1.83A5.323,5.323,0,0,1,30,53a5,5,0,0,1-9,3l-.1-.01A4.619,4.619,0,0,0,21,55a4.886,4.886,0,0,0-1.01-3l.14-.13a5.02,5.02,0,0,1,3.74-3.74A4.662,4.662,0,0,1,25,48a3.642,3.642,0,0,1,.57.04Z" fill="#404c71"/>
      <path id="Path_8" data-name="Path 8" d="M19.98,40.2a4.671,4.671,0,0,1-.41,1.74l-.01.1A3.517,3.517,0,0,0,19,42a5.786,5.786,0,0,0-5,3,5.015,5.015,0,0,0-3.01-1.9L11,43a4.8,4.8,0,0,1-1-3.07,4.935,4.935,0,0,1,4.56-4.9A3.145,3.145,0,0,1,15,35a5.041,5.041,0,0,1,4,1.97,4.824,4.824,0,0,1,1,2.96A1.274,1.274,0,0,1,19.98,40.2Z" fill="#404c71"/>
      <path id="Path_9" data-name="Path 9" d="M15,48v2l.02.09a5.035,5.035,0,0,0-1.88.76c-.14.1-.28.2-.41.3a5.033,5.033,0,0,0-1.71,2.88A4.976,4.976,0,0,0,7,52a5,5,0,0,1,3-9,4.619,4.619,0,0,1,.99.1A5.015,5.015,0,0,1,14,45,4.941,4.941,0,0,1,15,48Z" fill="#404c71"/>
      <path id="Path_10" data-name="Path 10" d="M19,25a5.5,5.5,0,0,0-.91.07c-.02,0-.05.01-.07.01L18,25V24a7,7,0,0,1,7-7,6.913,6.913,0,0,1,4.74,1.86c.07.06.13.13.2.2A6.909,6.909,0,0,1,32,24v1l.11.32a1.829,1.829,0,0,0-.25.08,5.41,5.41,0,0,0-1.45.8,5.977,5.977,0,0,0-2.37,4.1A5.374,5.374,0,0,0,28,31a4.8,4.8,0,0,0,.07.85A5.921,5.921,0,0,0,25,31v-.02A5.994,5.994,0,0,0,19,25Z" fill="#404c71"/>
      <path id="Path_11" data-name="Path 11" d="M23.87,48.13a5.02,5.02,0,0,0-3.74,3.74l-.14.13a5.039,5.039,0,0,0-1.01-1,4.978,4.978,0,0,0-3.02-1,4.833,4.833,0,0,0-.94.09L15,50V48a4.941,4.941,0,0,0-1-3,5.786,5.786,0,0,1,5-3,3.516,3.516,0,0,1,.56.04h.01A4.922,4.922,0,0,1,24,46.89,4.443,4.443,0,0,1,23.87,48Z" fill="#404c71"/>
      <path id="Path_12" data-name="Path 12" d="M53,43v2a6,6,0,1,1-6.46-5.98A12.536,12.536,0,0,0,53,43Z" fill="#404c71"/>
      <path id="Path_13" data-name="Path 13" d="M42,50a6,6,0,0,1-11.77,1.63A5.836,5.836,0,0,1,30,50a6,6,0,0,1,12,0Z" fill="#404c71"/>
      <path id="Path_14" data-name="Path 14" d="M41.1,33c-.1,1.21-.1,2-.1,2l4-2a7.859,7.859,0,0,0,1.54,6.02A6,6,0,0,0,41,45a6.01,6.01,0,0,1-5.53-3.66A6.071,6.071,0,0,1,35,39a5.778,5.778,0,0,1,.41-2.17,6,6,0,0,1,4.18-3.66c.14-.03.28-.06.42-.08A5.361,5.361,0,0,1,41,33Z" fill="#404c71"/>
      <path id="Path_15" data-name="Path 15" d="M14.56,35a5.964,5.964,0,0,1,3.46-9.91v-.01c.02,0,.05-.01.07-.01A5.5,5.5,0,0,1,19,25a5.994,5.994,0,0,1,6,5.98V31a6,6,0,0,0-6,5.97A5.041,5.041,0,0,0,15,35a3.145,3.145,0,0,0-.44.03Z" fill="#404c71"/>
    </g>
    <path id="Path_16" data-name="Path 16" d="M43,22a6.977,6.977,0,0,0-5.09-6.73l.07-.27L37,12h2.95C37,8,40.93,2,40.93,2s6.88,3,7.86,9L51,10a20.344,20.344,0,0,1,1,5v2.8a14.711,14.711,0,0,1-7.93,4.1A6.261,6.261,0,0,1,43,22Z" fill="#a0d468"/>
    <path id="Path_17" data-name="Path 17" d="M41.1,33a25,25,0,0,1,1.47-7.01,19.247,19.247,0,0,0,11.84-4.82C62,24.38,62,35,62,35l-3-1a6.993,6.993,0,0,1-.41,2.32C57.23,40.18,53,43,53,43a12.536,12.536,0,0,1-6.46-3.98A7.859,7.859,0,0,1,45,33l-4,2S41,34.21,41.1,33Z" fill="#a0d468"/>
    <path id="Path_18" data-name="Path 18" d="M39.15,27.92A6.974,6.974,0,0,0,43,22a6.261,6.261,0,0,0,1.07-.1A14.711,14.711,0,0,0,52,17.8,6.984,6.984,0,0,0,54,13a2,2,0,0,1,4,0,11.021,11.021,0,0,1-3.59,8.17,19.247,19.247,0,0,1-11.84,4.82A25,25,0,0,0,41.1,33H41a5.361,5.361,0,0,0-.99.09L40,33V31a5.95,5.95,0,0,0-.7-2.82c-.05-.09-.1-.17-.15-.26Z" fill="#cf9e76"/>
    <path id="Path_19" data-name="Path 19" d="M63,36.387V35c0-.444-.09-10.193-6.968-14.141A11.827,11.827,0,0,0,59,13a3,3,0,1,0-6,0,5.406,5.406,0,0,1-.077.872,24.73,24.73,0,0,0-.975-4.188L51.6,8.632l-2.11.955c-1.687-5.62-7.877-8.381-8.158-8.5L40.556.746l-.463.707C39.938,1.69,36.7,6.721,38.282,11H35.62l.993,3.031C36.41,14.016,36.207,14,36,14a7.205,7.205,0,0,0-1.032.076c-.286-4.366-2.583-9.01-6.726-10.046a6.129,6.129,0,0,0-4.057.235A11.5,11.5,0,0,0,19,3a7.936,7.936,0,0,0-7.331,5.191,9.278,9.278,0,0,0-5.588,5.415l1.838.788a7.823,7.823,0,0,1,3.1-3.727C11,10.784,11,10.9,11,11a3.1,3.1,0,0,0,2.235,3.318,3.343,3.343,0,0,0,3.659-1.871,2.974,2.974,0,0,0-.045-3.167,3.584,3.584,0,0,0-2.772-1.4A5.64,5.64,0,0,1,19,5a9.321,9.321,0,0,1,3.332.635A5.293,5.293,0,0,0,21,9,3.723,3.723,0,0,0,23.288,12.4a3.051,3.051,0,0,0,3.419-.688,3.6,3.6,0,0,0,.9-4.109,5.514,5.514,0,0,0-1.254-1.793,5.207,5.207,0,0,1,1.4.166c3.305.826,5.127,5.027,5.232,8.7a8.018,8.018,0,0,0-3.294,2.872A7.984,7.984,0,0,0,17,24v.3a7.034,7.034,0,0,0-5,6.682,6.931,6.931,0,0,0,.907,3.424A5.938,5.938,0,0,0,9,39.926a6.357,6.357,0,0,0,.35,2.11,6,6,0,0,0-4.333,9.308,5.994,5.994,0,1,0,7.29,8.418,6.034,6.034,0,0,0,9.024-2.03,5.977,5.977,0,0,0,9.437-3.1,6.989,6.989,0,0,0,12.2-3.925A6.989,6.989,0,0,0,54,45V43.514a17.506,17.506,0,0,0,5.013-5.664A4.619,4.619,0,0,1,61,41a4.985,4.985,0,0,1-.434,2.139,2.851,2.851,0,0,0-.215-.312,2.572,2.572,0,0,0-2.861-.79A2.111,2.111,0,0,0,56,44a2.555,2.555,0,0,0,2.558,2.759,16.269,16.269,0,0,1-1.4,2.711l1.695,1.06a13.968,13.968,0,0,0,2.04-4.639A6.115,6.115,0,0,0,63,41c0-2.015-1.491-3.865-3.255-5.1.046-.182.1-.363.132-.55ZM15.2,10.414a1.182,1.182,0,0,1-.1,1.139,1.354,1.354,0,0,1-1.41.819C13.067,12.224,13,11.363,13,11a4.433,4.433,0,0,1,.19-1.1l.074-.008a2.156,2.156,0,0,1,1.939.527Zm10.09-.121a1.058,1.058,0,0,1-1.239.254A1.751,1.751,0,0,1,23,9a3.351,3.351,0,0,1,1.18-2.391,4.407,4.407,0,0,1,1.583,1.755A1.627,1.627,0,0,1,25.293,10.293ZM58.571,44.759c-.186,0-.571,0-.577-.736a.51.51,0,0,1,.376-.134h.015a.512.512,0,0,1,.468.284,1.317,1.317,0,0,1,.126.515,1.328,1.328,0,0,1-.408.071ZM55,13.012A1,1,0,1,1,57,13c0,7.8-8.26,11.4-13.656,11.928a7.049,7.049,0,0,0,.586-2C47.858,22.442,55,19.084,55,13.012ZM29.132,48.658A5.861,5.861,0,0,0,26.15,47.12,4.887,4.887,0,0,1,25,43.976a4.373,4.373,0,0,1,.084-.89A4.977,4.977,0,0,1,30,39a4.365,4.365,0,0,1,.753.059,5.01,5.01,0,0,1,4.165,4.033A7.01,7.01,0,0,0,29.132,48.658Zm-9.461,1.618c-.03-.024-.055-.051-.086-.075A6,6,0,0,0,16,49.023V48a5.953,5.953,0,0,0-.83-3.03A4.97,4.97,0,0,1,19,43a2.973,2.973,0,0,1,.461.033A3.92,3.92,0,0,1,23,46.894a3.4,3.4,0,0,1-.055.478A6.049,6.049,0,0,0,19.671,50.276ZM25,32a5,5,0,0,1,4.946,4.328A3.811,3.811,0,0,1,30,37a6.966,6.966,0,0,0-6.864,5.65,5.915,5.915,0,0,0-2.3-1.366,5.381,5.381,0,0,0,.14-.974A2.385,2.385,0,0,0,21,39.926a5.785,5.785,0,0,0-.972-3.2A4.993,4.993,0,0,1,25,32Zm4-1a4.406,4.406,0,0,1,.033-.582,4.958,4.958,0,0,1,1.989-3.427,4.44,4.44,0,0,1,1.2-.661A4.893,4.893,0,0,1,34,26a5,5,0,0,1,4.418,2.653A4.9,4.9,0,0,1,39,31v1.306a6.966,6.966,0,0,0-4.518,4.149,6.627,6.627,0,0,0-.445,1.833A6.894,6.894,0,0,0,32,37.3V37a5.555,5.555,0,0,0-.079-.985,6.908,6.908,0,0,0-2.9-4.725c-.007-.1-.024-.182-.024-.29Zm11.668-2.1c-.066-.21-.138-.416-.223-.618.157-.109.3-.229.445-.345C40.809,28.263,40.736,28.584,40.668,28.9Zm-.574,15A5,5,0,0,1,36,39a4.776,4.776,0,0,1,.343-1.809,4.981,4.981,0,0,1,3.484-3.049c.065-.016.132-.023.2-.036C40,34.615,40,34.946,40,35v1.618l3.934-1.967a8.686,8.686,0,0,0,.985,3.665A7.016,7.016,0,0,0,40.094,43.908ZM38.38,13h3.546l-1.174-1.593c-1.931-2.621-.287-6.458.571-8.085,1.741.962,5.788,3.619,6.479,7.84l.211,1.287,2.357-1.066A15.431,15.431,0,0,1,51,15v2.372a13.536,13.536,0,0,1-5.016,3,14.311,14.311,0,0,0,.548-1.487l3.175-3.175-1.414-1.414L46.985,15.6a13.946,13.946,0,0,0-2.153-6.156l-1.664,1.109a12.558,12.558,0,0,1,1.769,4.575,8.507,8.507,0,0,0-1.49-1.024l-.9,1.789a6.821,6.821,0,0,1,2.193,1.951,12.625,12.625,0,0,1-.933,2.449,8.024,8.024,0,0,0-4.926-5.747ZM36,16a6.006,6.006,0,0,1,6,6,5.7,5.7,0,0,1-2.6,4.569A6.867,6.867,0,0,0,33,24.08V24a7.979,7.979,0,0,0-1.817-5.054A5.584,5.584,0,0,1,36,16ZM25,18a6.02,6.02,0,0,1,6,6v.7a6.3,6.3,0,0,0-1.187.7,7.017,7.017,0,0,0-2.765,4.771c-.006.047,0,.1-.008.144a6.945,6.945,0,0,0-1.108-.251A7,7,0,0,0,19,24a6.006,6.006,0,0,1,6-6Zm-6.746,8.056A4.614,4.614,0,0,1,19,26a5,5,0,0,1,4.91,4.094A7.015,7.015,0,0,0,18.3,34.983,6.071,6.071,0,0,0,15.052,34,4.92,4.92,0,0,1,14,30.982a5.022,5.022,0,0,1,4.254-4.926ZM14.7,36.02A2.132,2.132,0,0,1,15,36a4.052,4.052,0,0,1,3.208,1.581,3.886,3.886,0,0,1,.8,2.407l-.022.181a3.571,3.571,0,0,1-.148.844,7.01,7.01,0,0,0-4.972,2.4A5.99,5.99,0,0,0,11.7,42.248a3.865,3.865,0,0,1-.7-2.322,3.972,3.972,0,0,1,3.7-3.906ZM10,44a4,4,0,0,1,4,4v1.351a6.159,6.159,0,0,0-1.443.684c-.145.1-.279.205-.469.351a6.175,6.175,0,0,0-1.466,1.846,6,6,0,0,0-3.207-1.207A3.954,3.954,0,0,1,6,48a4,4,0,0,1,4-4Zm.936,13.713A4,4,0,1,1,11,57,4.28,4.28,0,0,1,10.936,57.713ZM15.96,59a4.069,4.069,0,0,1-3.018-1.345A6.311,6.311,0,0,0,13,57a5.963,5.963,0,0,0-.9-3.129,4.066,4.066,0,0,1,1.254-1.935c.118-.09.237-.18.334-.25a4.153,4.153,0,0,1,4.694.112,4.264,4.264,0,0,1,.817.81A3.9,3.9,0,0,1,20,55a4.024,4.024,0,0,1-4.04,4ZM25,57a4.016,4.016,0,0,1-3.03-1.421c.019-.191.03-.384.03-.579a5.888,5.888,0,0,0-.853-3.046A4.033,4.033,0,0,1,24.112,49.1a3.3,3.3,0,0,1,1.3-.072l.109.012A4,4,0,0,1,29,53a4,4,0,0,1-4,4Zm11-2a5,5,0,1,1,5-5A5.006,5.006,0,0,1,36,55Zm11-5a4.994,4.994,0,0,1-.87-9.912A12.84,12.84,0,0,0,52,43.767V45a5.006,5.006,0,0,1-5,5Zm5.8-8.085c-1.668-.479-7.576-2.624-6.806-8.791l.231-1.854-4.148,2.075a26.323,26.323,0,0,1,1.205-6.4,19.917,19.917,0,0,0,4-.739L46.1,28.553l1.789.9,1.3-2.6a16.617,16.617,0,0,1,1.949,4.609,15.524,15.524,0,0,0-2.089,4.223l1.9.633a20.592,20.592,0,0,1,.785-1.976A25.589,25.589,0,0,1,52,38h2a26.045,26.045,0,0,0-1.517-8.9,9.716,9.716,0,0,1,3.07.794l.9-1.789a13.348,13.348,0,0,0-4.864-1.087,12.723,12.723,0,0,0-1.225-1.969,18.11,18.11,0,0,0,4.2-2.71c4.845,2.44,6.051,8.477,6.348,11.241L58,32.613V34c0,3.741-3.979,7-5.2,7.915Z"/>
  </g>
</svg>
