<svg xmlns="http://www.w3.org/2000/svg" width="73.801" height="67.667" viewBox="0 0 73.801 67.667"><g transform="translate(1.702 -19.615)"><path d="M67.8,213.96,35.2,246.566,2.6,213.96A1.531,1.531,0,1,0,.43,216.125l33.686,33.686a1.531,1.531,0,0,0,2.165,0l33.686-33.686A1.532,1.532,0,0,0,67.8,213.96Z" transform="translate(0 -164.662)" fill="#fff" stroke="#fff" stroke-width="3"/><path d="M67.8,21.736l-32.6,32.6L2.6,21.736A1.531,1.531,0,0,0,.43,23.9L34.116,57.588a1.531,1.531,0,0,0,2.165,0L69.968,23.9a1.531,1.531,0,1,0-2.128-2.2l-.038.038Z" fill="#b3c9d2" stroke="#b3c9d2" stroke-width="3"/></g></svg>