<svg xmlns="http://www.w3.org/2000/svg" width="73.789" height="67.696" viewBox="0 0 73.789 67.696"><g transform="translate(1.666 -19.585)"><path d="M67.8,213.96,35.2,246.566,2.595,213.96A1.531,1.531,0,0,0,.43,216.125l33.686,33.686a1.531,1.531,0,0,0,2.165,0l33.686-33.686A1.531,1.531,0,0,0,67.8,213.96Z" transform="translate(0 -164.662)" fill="#0f2027" stroke="#0f2027" stroke-width="3"/><path d="M67.8,21.736,35.2,54.341,2.595,21.736A1.531,1.531,0,0,0,.43,23.9L34.116,57.588a1.531,1.531,0,0,0,2.165,0L69.968,23.9a1.531,1.531,0,1,0-2.128-2.2l-.038.038Z" transform="translate(0 0)" fill="#2c5364" stroke="#2c5364" stroke-width="3"/></g></svg>