<svg id="fs" xmlns="http://www.w3.org/2000/svg" width="469.333" height="469.334" viewBox="0 0 469.333 469.334">
  <g id="Group_2" data-name="Group 2">
    <g id="Group_1" data-name="Group 1">
      <path id="Path_1" data-name="Path 1" d="M160,0H10.667A10.661,10.661,0,0,0,0,10.667V160a10.661,10.661,0,0,0,10.667,10.667H32A10.661,10.661,0,0,0,42.667,160V42.667H160A10.661,10.661,0,0,0,170.667,32V10.667A10.661,10.661,0,0,0,160,0Z" fill="#fff"/>
      <path id="Path_2" data-name="Path 2" d="M458.667,0H309.333a10.661,10.661,0,0,0-10.667,10.667V32a10.661,10.661,0,0,0,10.667,10.667H426.666V160a10.661,10.661,0,0,0,10.667,10.667h21.333A10.661,10.661,0,0,0,469.333,160V10.667A10.66,10.66,0,0,0,458.667,0Z" fill="#fff"/>
      <path id="Path_3" data-name="Path 3" d="M458.667,298.667H437.334a10.661,10.661,0,0,0-10.667,10.667V426.667H309.333a10.661,10.661,0,0,0-10.667,10.667v21.333a10.661,10.661,0,0,0,10.667,10.667H458.666a10.661,10.661,0,0,0,10.667-10.667V309.333A10.659,10.659,0,0,0,458.667,298.667Z" fill="#fff"/>
      <path id="Path_4" data-name="Path 4" d="M160,426.667H42.667V309.333A10.661,10.661,0,0,0,32,298.666H10.667A10.662,10.662,0,0,0,0,309.333V458.666a10.661,10.661,0,0,0,10.667,10.667H160a10.661,10.661,0,0,0,10.667-10.667V437.333A10.661,10.661,0,0,0,160,426.667Z" fill="#fff"/>
    </g>
  </g>
</svg>
