<svg xmlns="http://www.w3.org/2000/svg" width="64" height="64" viewBox="0 0 64 64"><circle cx="32" cy="32" r="32" fill="#76c2af"/><g transform="translate(16.323 17.021)" opacity="0.2"><g transform="translate(3.064 3.064)"><path d="M40.51,24.128V18H16V42.51H40.51Z" transform="translate(-16 -18)" fill="#231f20"/></g><g transform="translate(0 0)"><path d="M39.574,14H15.064A3.064,3.064,0,0,0,12,17.064v24.51a3.064,3.064,0,0,0,3.064,3.064h24.51a3.064,3.064,0,0,0,3.064-3.064V17.064A3.064,3.064,0,0,0,39.574,14Z" transform="translate(-12 -14)" fill="#231f20"/></g></g><g transform="translate(16.323 15.489)"><g transform="translate(1.532 1.532)"><path d="M15.532,41.574A1.533,1.533,0,0,1,14,40.042V15.532A1.533,1.533,0,0,1,15.532,14h24.51a1.533,1.533,0,0,1,1.532,1.532v24.51a1.533,1.533,0,0,1-1.532,1.532Z" transform="translate(-14 -14)" fill="#77b3d4"/></g><g transform="translate(0 0)"><path d="M39.574,15.064v24.51H15.064V15.064h24.51m0-3.064H15.064A3.064,3.064,0,0,0,12,15.064v24.51a3.064,3.064,0,0,0,3.064,3.064h24.51a3.064,3.064,0,0,0,3.064-3.064V15.064A3.064,3.064,0,0,0,39.574,12Z" transform="translate(-12 -12)" fill="#fff"/></g></g><g transform="translate(19.03 39.847)"><rect width="25" height="3" transform="translate(-0.03 0.153)" fill="#fff"/></g><g transform="translate(17.847 28.543)"><g transform="translate(0 0)"><path d="M13.99,40.5H40.718V38.262A30.444,30.444,0,0,0,38.2,34.553a2.085,2.085,0,0,0-3.419-.058l-2.108,2.024L28.08,30.675a3.782,3.782,0,0,0-6.223,0Z" transform="translate(-13.99 -29.043)" fill="#4f5d73"/></g></g><g transform="translate(35.268 22.706)"><ellipse cx="2.5" cy="2" rx="2.5" ry="2" transform="translate(-0.268 0.294)" fill="#f5cf87"/></g><g transform="translate(16.323 15.489)"><path d="M39.574,15.064v24.51H15.064V15.064h24.51m0-3.064H15.064A3.064,3.064,0,0,0,12,15.064v24.51a3.064,3.064,0,0,0,3.064,3.064h24.51a3.064,3.064,0,0,0,3.064-3.064V15.064A3.064,3.064,0,0,0,39.574,12Z" transform="translate(-12 -12)" fill="#fff"/></g></svg>