<svg xmlns="http://www.w3.org/2000/svg" width="220" height="220" viewBox="0 0 220 220"><g transform="translate(5856.257 5956.257)"><g transform="translate(-5856.257 -5956.257)" fill="none" stroke="#fff" stroke-width="7"><circle cx="110" cy="110" r="110" stroke="none"/><circle cx="110" cy="110" r="106.5" fill="none"/></g><g transform="translate(-5802.448 -5921.358)"><g transform="translate(0 26.403)"><path d="M58.283,258.457a14.229,14.229,0,0,1-8.931-3.33L32.854,240.6a7.265,7.265,0,0,0-9.385-.454L.009,257.4v11.2a5.449,5.449,0,0,0,5.136,5.746q.233.014.465.006h83.1c3.33,0,6.66-2.422,6.66-5.752V239.234L65.548,256.489a13.775,13.775,0,0,1-7.265,1.968Z" transform="translate(0 -177.151)" fill="#fff"/><circle cx="6.66" cy="6.66" r="6.66" transform="translate(50.412 38.622)" fill="#fff"/><path d="M151.208,38.234a5.6,5.6,0,0,0-4.087-2.271L64.629,26.427a6.962,6.962,0,0,0-4.541,1.211,6.962,6.962,0,0,0-2.271,3.936L56.455,43.38h72.351a13.017,13.017,0,0,1,12.715,12.563v53.431c0-.3,1.362-.606,1.968-1.211a5.146,5.146,0,0,0,1.968-4.087l7.114-61.453A5.9,5.9,0,0,0,151.208,38.234Z" transform="translate(-40.099 -26.403)" fill="#fff"/><path d="M88.728,105.9H5.631c-3.33,0-5.6,3.178-5.6,6.508v43.138l19.98-14.531a13.32,13.32,0,0,1,16.8.757L53.461,156.3a7.719,7.719,0,0,0,8.93.757l33-19.223V112.407a6.962,6.962,0,0,0-6.663-6.507ZM57.094,140.864a12.715,12.715,0,1,1,12.715-12.715,12.715,12.715,0,0,1-12.715,12.715Z" transform="translate(-0.021 -82.868)" fill="#fff"/></g></g></g></svg>