<svg xmlns="http://www.w3.org/2000/svg" width="540" height="720" viewBox="0 0 540 720"><g transform="translate(-372 -174)"><rect width="540" height="720" transform="translate(372 174)" fill="#b8c6db"/><rect width="67" height="19" rx="5" transform="translate(609 276)" fill="#fff"/><rect width="57" height="22" transform="translate(614 306)" fill="#fff"/><rect width="57" height="23" transform="translate(614 339)" fill="#fff"/><rect width="57" height="24" transform="translate(614 371)" fill="#fff"/><rect width="62" height="22" transform="translate(611 405)" fill="#fff"/><rect width="86" height="23" transform="translate(599 438)" fill="#fff"/><rect width="116" height="22" transform="translate(586 471)" fill="#fff"/><rect width="137" height="22" transform="translate(574 504)" fill="#fff"/><rect width="160" height="23" transform="translate(562 536)" fill="#fff"/><rect width="160" height="23" transform="translate(562 571)" fill="#fff"/><rect width="160" height="23" transform="translate(562 604)" fill="#fff"/><rect width="160" height="24" transform="translate(562 637)" fill="#fff"/><rect width="160" height="23" transform="translate(562 670)" fill="#fff"/><rect width="160" height="22" transform="translate(562 704)" fill="#fff"/><rect width="160" height="23" transform="translate(562 737)" fill="#fff"/><path d="M0,0H160a0,0,0,0,1,0,0V18a5,5,0,0,1-5,5H5a5,5,0,0,1-5-5V0A0,0,0,0,1,0,0Z" transform="translate(562 770)" fill="#fff"/></g></svg>