<svg id="logo" xmlns="http://www.w3.org/2000/svg" width="60" height="60" viewBox="0 0 60 60">
  <g id="_048---Petroleum-Solvent-Only" data-name="048---Petroleum-Solvent-Only">
    <g id="Color" transform="translate(1 1)">
      <path id="Oval" d="M29,0A29,29,0,1,1,0,29,29,29,0,0,1,29,0Z" fill="teal"/>
      <path id="Shape" d="M29,0H27.5a29,29,0,0,1,0,58H29A29,29,0,0,0,29,0Z" fill="#00edf5"/>
      <circle id="Oval-2" data-name="Oval" cx="25" cy="25" r="25" transform="translate(4 4)" fill="#5dedff"/>
      <path id="Shape-2" data-name="Shape" d="M29,4H27.5a25,25,0,0,1,0,49.9H29A25,25,0,0,0,29,4Z" fill="#00b5c5"/>
      <path id="Shape-3" data-name="Shape" d="M37,13H21a3,3,0,0,0-3,3V42a3,3,0,0,0,6,0V33h7a3,3,0,0,0,0-6H24V19H37a3,3,0,0,0,0-6Z" fill="#f5f5f5"/>
      <g id="Group_1" data-name="Group 1">
        <path id="Shape-4" data-name="Shape" d="M21,42a3,3,0,0,1-1.5,2.58A2.94,2.94,0,0,0,21,45a3,3,0,0,0,3-3V33H21Z" fill="#cfd8dc"/>
        <path id="Rectangle-path" d="M21,19h3v8H21Z" fill="#cfd8dc"/>
        <path id="Shape-5" data-name="Shape" d="M37,13H34a3,3,0,0,1,0,6h3a3,3,0,0,0,0-6Z" fill="#cfd8dc"/>
        <path id="Shape-6" data-name="Shape" d="M31,27H28a3,3,0,0,1,0,6h3a3,3,0,0,0,0-6Z" fill="#cfd8dc"/>
      </g>
    </g>
    <g id="Outline">
      <path id="Shape-7" data-name="Shape" d="M30,0A30,30,0,1,0,51.213,8.787,30,30,0,0,0,30,0Zm0,58A28,28,0,1,1,58,30,28,28,0,0,1,30,58Z"/>
      <path id="Shape-8" data-name="Shape" d="M30,4a26,26,0,1,0,18.385,7.615A26,26,0,0,0,30,4Zm0,50a24,24,0,1,1,16.971-7.029A24,24,0,0,1,30,54Z"/>
      <path id="Shape-9" data-name="Shape" d="M38,13H22a4,4,0,0,0-4,4V43a4,4,0,0,0,8,0V35h6a4,4,0,0,0,0-8H26V21H38a4,4,0,0,0,0-8Zm0,6H25a1,1,0,0,0-1,1v8a1,1,0,0,0,1,1h7a2,2,0,0,1,0,4H25a1,1,0,0,0-1,1v9a2,2,0,0,1-4,0V17a2,2,0,0,1,2-2H38a2,2,0,0,1,0,4Z"/>
    </g>
  </g>
</svg>
