<svg xmlns="http://www.w3.org/2000/svg" width="60" height="60" viewBox="0 0 60 60"><path d="M30,0A30,30,0,1,0,60,30,30,30,0,0,0,30,0Zm0,54.375A24.375,24.375,0,1,1,54.375,30,24.374,24.374,0,0,1,30,54.375Zm6.72-21.838H35.662V21.5c0-3.27-1.761-4.6-3.971-4.6A3.92,3.92,0,0,0,27.8,18.986L19.267,33.578a2.626,2.626,0,0,0-.534,1.583c0,.934.8,2.121,2.668,2.121h9.186v3.054c0,1.907.388,2.8,2.332,2.8s2.743-.9,2.743-2.8V37.281H36.72a2.388,2.388,0,1,0,0-4.744Zm-6.017,0H25.481l5.145-10.029H30.7Z" fill="#eee"/></svg>