<svg xmlns="http://www.w3.org/2000/svg" width="220" height="220" viewBox="0 0 220 220"><g transform="translate(5856.257 5956.257)"><g transform="translate(-5856.257 -5956.257)" fill="none" stroke="#fff" stroke-width="7"><circle cx="110" cy="110" r="110" stroke="none"/><circle cx="110" cy="110" r="106.5" fill="none"/></g><g transform="translate(-5862.257 -5903.457)"><path d="M116.5,0A40.532,40.532,0,0,0,76,40.5a39.937,39.937,0,0,0,6.075,21.263l31.679,51.843a3.2,3.2,0,0,0,2.3,1.553,3.36,3.36,0,0,0,3.442-1.62l31.77-52.316A39.943,39.943,0,0,0,157,40.5,40.532,40.532,0,0,0,116.5,0Zm0,60.75A20.25,20.25,0,1,1,136.75,40.5,20.223,20.223,0,0,1,116.5,60.75Z" fill="#fff"/><path d="M256,0V20.25a20.25,20.25,0,0,1,0,40.5V115.2a3.342,3.342,0,0,0,2.992-1.659l31.77-52.316A39.941,39.941,0,0,0,296.5,40.5,40.532,40.532,0,0,0,256,0Z" transform="translate(-139.5)" fill="#fff"/></g></g></svg>