<svg xmlns="http://www.w3.org/2000/svg" width="220" height="220" viewBox="0 0 220 220"><g transform="translate(5856.257 5956.257)"><g transform="translate(-5856.257 -5956.257)" fill="none" stroke="#fff" stroke-width="7"><circle cx="110" cy="110" r="110" stroke="none"/><circle cx="110" cy="110" r="106.5" fill="none"/></g><g transform="translate(-5863.257 -5904.19)"><g transform="translate(76)"><path d="M116.758,0A40.765,40.765,0,0,0,82.084,62.19l32.354,52.138a3.4,3.4,0,0,0,2.886,1.606h.027a3.4,3.4,0,0,0,2.887-1.651L151.767,61.64A40.767,40.767,0,0,0,116.758,0Zm29.18,58.152-28.665,47.861-29.415-47.4a33.988,33.988,0,1,1,58.08-.459Z" transform="translate(-76)" fill="#fff"/></g><g transform="translate(96.379 20.379)"><path d="M186.379,90a20.379,20.379,0,1,0,20.379,20.379A20.4,20.4,0,0,0,186.379,90Zm0,34.01a13.631,13.631,0,1,1,13.609-13.631A13.642,13.642,0,0,1,186.379,124.01Z" transform="translate(-166 -90)" fill="#fff"/></g></g></g></svg>