<svg xmlns="http://www.w3.org/2000/svg" width="60" height="60" viewBox="0 0 60 60"><path d="M30,0A30,30,0,1,0,60,30,30,30,0,0,0,30,0Zm0,54.375A24.375,24.375,0,1,1,54.375,30,24.374,24.374,0,0,1,30,54.375ZM36.336,37.8h-6.72c3.285-3.872,8.569-8.338,8.569-13.369,0-4.6-3.474-7.526-8.226-7.526s-9.2,3.771-9.2,8.331a2.587,2.587,0,0,0,2.82,2.64c3.711,0,1.7-5.977,6.144-5.977a2.788,2.788,0,0,1,2.783,2.786,5.772,5.772,0,0,1-1.354,3.366c-2.936,3.979-6.414,7.236-9.621,10.819a2.944,2.944,0,0,0-.891,1.845c0,1.665,1.314,2.387,3.013,2.387H36.562a2.612,2.612,0,0,0,2.783-2.621A2.725,2.725,0,0,0,36.336,37.8Z" fill="#eee"/></svg>