<svg xmlns="http://www.w3.org/2000/svg" width="60" height="60" viewBox="0 0 60 60"><path d="M30,0A30,30,0,1,0,60,30,30,30,0,0,0,30,0Zm0,54.375A24.375,24.375,0,1,1,54.375,30,24.374,24.374,0,0,1,30,54.375Zm5.179-25.505a6.276,6.276,0,0,0,2.8-5.449c0-2.777-2.361-6.519-7.284-6.519-3.8,0-7.455,2.994-7.455,5.771a2.421,2.421,0,0,0,2.224,2.634c2.325,0,1.881-3.489,5.128-3.489A2.3,2.3,0,0,1,33.056,24.2c0,3.954-4.856,1.425-4.856,5.166,0,4.2,5.814.534,5.814,5.52A3.228,3.228,0,0,1,30.8,38.2c-3.864,0-3.317-4.168-5.642-4.168a2.615,2.615,0,0,0-2.633,2.387c0,2.814,3.146,6.7,8.207,6.7,4.856,0,8.617-3.6,8.617-7.871A7.1,7.1,0,0,0,35.179,28.869Z" fill="#eee"/></svg>