<svg height="512" viewBox="0 0 50 60" width="512" xmlns="http://www.w3.org/2000/svg"><g id="Page-1" fill="none" fill-rule="evenodd"><g id="033---Wine-Bottle-Top" fill-rule="nonzero"><path id="Shape" d="m47 26c0 3.87-9.85 7-22 7s-22-3.13-22-7c.01089964-.5875804.21865572-1.154508.59-1.61 1.18914058-1.3222985 2.71250281-2.2998756 4.41-2.83v1.94c0 2.49 7.61 4.5 17 4.5s17-2.01 17-4.5v-1.94c1.6974972.5301244 3.2208594 1.5077015 4.41 2.83.3713443.455492.5791004 1.0224196.59 1.61z" fill="#a4c400"/><path id="Shape" d="m42 5.5c0 2.49-7.61 4.5-17 4.5s-17-2.01-17-4.5c.0100359-.390895.17560816-.76163289.46-1.03 1.76-1.99 8.5-3.47 16.54-3.47s14.78 1.48 16.54 3.47c.2843918.26836711.4499641.639105.46 1.03z" fill="#ffeb3a"/><path id="Shape" d="m41.54 4.47c-1.76-1.99-8.5-3.47-16.54-3.47-.5 0-1.006.006-1.5.017 7.368.171 13.391 1.588 15.04 3.453.2843918.26836711.4499641.639105.46 1.03 0 2.356-6.814 4.279-15.5 4.48.5.011.994.02 1.5.02 9.39 0 17-2.01 17-4.5-.0100359-.390895-.1756082-.76163289-.46-1.03z" fill="#fdd834"/><path id="Shape" d="m45 40.96v18.04h-40v-18.06c3.18 1.85 8.53 3.32 15 3.87 1.6.12 3.27.19 5 .19 8.7 0 16.03-1.73 20-4.04z" fill="#008a00"/><path id="Shape" d="m42 42.35v16.65h3v-18.04c-.9605774.5440646-1.9638986 1.0089368-3 1.39z" fill="#007900"/><path id="Shape" d="m48 38c-.6486142 1.2887578-1.7026525 2.3287422-3 2.96-3.97 2.31-11.3 4.04-20 4.04-1.73 0-3.4-.07-5-.19-6.47-.55-11.82-2.02-15-3.87-1.30168869-.6154327-2.35839886-1.6510086-3-2.94-2.46-6.56.46-12.43 1.59-13.61-.37134428.455492-.57910036 1.0224196-.59 1.61 0 3.87 9.85 7 22 7s22-3.13 22-7c-.0108996-.5875804-.2186557-1.154508-.59-1.61 1.13 1.18 4.05 7.05 1.59 13.61z" fill="#60a917"/><path id="Shape" d="m46.41 24.39c.3713443.455492.5791004 1.0224196.59 1.61-.0988323 1.0721583-.6875587 2.0384816-1.595 2.618.8554205 3.0920578.7136963 6.3751604-.405 9.382-.6486142 1.2887578-1.7026525 2.3287422-3 2.96-3.7 2.154-10.328 3.8-18.26 4.015.42.009.833.025 1.26.025 8.7 0 16.03-1.73 20-4.04 1.2973475-.6312578 2.3513858-1.6712422 3-2.96 2.46-6.56-.46-12.43-1.59-13.61z" fill="#549414"/><path id="Shape" d="m42 5.5v18c0 2.49-7.61 4.5-17 4.5s-17-2.01-17-4.5v-18c0 2.49 7.61 4.5 17 4.5s17-2.01 17-4.5z" fill="#ffdc00"/><path id="Shape" d="m39 8.052v15.448c0 2.356-6.814 4.279-15.5 4.48.5.011.994.02 1.5.02 9.39 0 17-2.01 17-4.5v-18c0 .949-1.111 1.827-3 2.552z" fill="#fec108"/><path id="Shape" d="m8.355 39.187c-.13769452-.0001625-.27387183-.0287597-.4-.084-1.15947995-.4283089-2.20480345-1.1177776-3.055-2.015-.05022637-.0722738-.09121144-.1505485-.122-.233-.31015201-.8463293-.52416295-1.7248475-.638-2.619-.06958788-.5481426.31835739-1.0489121.8665-1.1185s1.04891212.3183574 1.1185.8665c.0876309.689981.24682145 1.3689707.475 2.026.6458515.5361196 1.37562602.9621592 2.16 1.261.43333942.1897877.67439786.6572695.57771864 1.120363-.09667922.4630934-.50464136.7950803-.97771864.795637z" fill="#f5f5f5"/><g fill="#000"><path id="Shape" d="m45 60c.5522847 0 1-.4477153 1-1v-17.5c1.2866467-.715287 2.3147901-1.8183191 2.938-3.152 2.594-6.917-.46-13.249-1.8-14.653-1.1244652-1.2649624-2.5467418-2.2294158-4.138-2.806v-15.389c-.0121918-.63588061-.2652245-1.24344485-.708-1.7-2.329-2.625-10.363-3.8-17.292-3.8s-14.963 1.175-17.281 3.789c-.44801046.45849246-.7050278 1.07011507-.719 1.711v15.389c-1.62731058.5840573-3.07470374 1.5813801-4.2 2.894-1.377 1.547-4.277 7.767-1.728 14.565.61933193 1.3330505 1.64413657 2.4362554 2.928 3.152v17.5c0 .5522847.44771525 1 1 1s1-.4477153 1-1v-16.418c1.20166943.5559919 2.44148526 1.0255178 3.71 1.405.5270075.1555988 1.0808314-.1431808 1.2401899-.6690637.1593584-.5258829-.1354585-1.0818264-.6601899-1.2449363-1.63895085-.4731753-3.22030359-1.1268459-4.715-1.949-.07719416-.058844-.16282451-.1057047-.254-.139-1.02185486-.5067528-1.85657071-1.3246622-2.384-2.336-1.12606134-3.04742-1.18738955-6.3862826-.174-9.473 2.784 3.798 12.761 5.824 22.237 5.824s19.456-2.027 22.238-5.826c1.0142602 3.0868629.9532817 6.4262245-.173 9.474-.5174143 1.0081552-1.3431677 1.8247998-2.357 2.331-.1469941.0421084-.2822086.11776-.395.221-3.75 2.1-10.84 3.8-19.313 3.8-1.614 0-3.271-.063-4.925-.187-.5439752-.0304683-1.0122357.3801286-1.0531053.9234214-.0408695.5432928.3606938 1.0193227.9031053 1.0705786 1.7.128 3.411.193 5.075.193 7.617 0 14.534-1.326 19-3.406v16.406c0 .5522847.4477153 1 1 1zm-20-33c-10.353 0-16-2.312-16-3.5v-15.3c3.2 1.9 9.762 2.8 16 2.8s12.8-.9 16-2.8v15.3c0 1.188-5.647 3.5-16 3.5zm-15.8-21.872c1.349-1.516 7.342-3.128 15.8-3.128s14.451 1.612 15.808 3.142c.1024506.0943366.1700952.22046563.192.358 0 1.188-5.647 3.5-16 3.5s-16-2.312-16-3.5c.02390629-.14263279.09420709-.27339228.2-.372zm15.8 26.872c-12.019 0-21-3.167-21-6 .01417616-.3745454.15522165-.7331536.4-1.017.70593144-.827699 1.59655477-1.4778541 2.6-1.898v.415c0 3.779 9.331 5.5 18 5.5s18-1.721 18-5.5v-.414c1.0107638.4227268 1.9071772 1.078589 2.616 1.914.2370016.2805545.3723119.6329251.384 1 0 2.833-8.981 6-21 6z"/><circle id="Oval" cx="12.704" cy="13.389" r="1"/><circle id="Oval" cx="16" cy="18" r="1"/><circle id="Oval" cx="18" cy="23" r="1"/><circle id="Oval" cx="23" cy="24" r="1"/><circle id="Oval" cx="21" cy="18" r="1"/><circle id="Oval" cx="25" cy="20" r="1"/><circle id="Oval" cx="25" cy="14" r="1"/><circle id="Oval" cx="18" cy="14" r="1"/><circle id="Oval" cx="13" cy="21" r="1"/><circle id="Oval" cx="37.296" cy="13.389" r="1"/><circle id="Oval" cx="34" cy="18" r="1"/><circle id="Oval" cx="32" cy="23" r="1"/><circle id="Oval" cx="27" cy="24" r="1"/><circle id="Oval" cx="29" cy="18" r="1"/><circle id="Oval" cx="32" cy="14" r="1"/><circle id="Oval" cx="14" cy="5.389" r="1"/><circle id="Oval" cx="25" cy="6" r="1"/><circle id="Oval" cx="19" cy="6" r="1"/><circle id="Oval" cx="22" cy="4" r="1"/><circle id="Oval" cx="28" cy="4" r="1"/><circle id="Oval" cx="36" cy="5.389" r="1"/><circle id="Oval" cx="31" cy="6" r="1"/><circle id="Oval" cx="37" cy="21" r="1"/></g></g></g></svg>