<svg id="up-arrow-b1" xmlns="http://www.w3.org/2000/svg" width="512" height="512" viewBox="0 0 512 512">
  <path id="Path_1" data-name="Path 1" d="M80,16H432a64,64,0,0,1,64,64V432a64,64,0,0,1-64,64H80a64,64,0,0,1-64-64V80A64,64,0,0,1,80,16Zm0,0" fill="#62a9c7"/>
  <g id="Group_1" data-name="Group 1">
    <path id="Path_2" data-name="Path 2" d="M432,0H80A80.1,80.1,0,0,0,0,80V432a80.1,80.1,0,0,0,80,80H432a80.1,80.1,0,0,0,80-80V80A80.1,80.1,0,0,0,432,0Zm48,432a48,48,0,0,1-48,48H80a48,48,0,0,1-48-48V80A48,48,0,0,1,80,32H432a48,48,0,0,1,48,48Zm0,0"/>
    <path id="Path_3" data-name="Path 3" d="M244.688,68.688,101.7,198.1l22.1,22.1L240,118.625V448h32V118.625L383.8,220.2l26-22.1L265.5,68.688c-6.25-6.246-14.562-6.246-20.812,0Zm0,0"/>
  </g>
</svg>
