<svg xmlns="http://www.w3.org/2000/svg" width="512" height="511.984" viewBox="0 0 512 511.984">
  <g id="whg3" transform="translate(0 -0.012)">
    <g id="Group_1" data-name="Group 1">
      <path id="Path_1" data-name="Path 1" d="M53.871,358.508A75.189,75.189,0,0,1,134.8,370.5a75.173,75.173,0,1,0-80.927-11.99Z" fill="#bafcce"/>
      <path id="Path_2" data-name="Path 2" d="M153.478,458.114a75.189,75.189,0,0,0-11.99-80.927,75.173,75.173,0,1,1,11.99,80.927Z" fill="#bafcce"/>
      <path id="Path_3" data-name="Path 3" d="M91,228.052a75.549,75.549,0,0,1,12.559-1.065,74.784,74.784,0,0,1,42.724,13.336,75.145,75.145,0,1,0-65.7-20.942A75.624,75.624,0,0,0,91,228.052Z" fill="#bafcce"/>
      <path id="Path_4" data-name="Path 4" d="M197.282,334.334a75.1,75.1,0,0,1,55.291,12.277A75.157,75.157,0,1,0,165.9,260.158a75.165,75.165,0,0,1,11.786,54.359,74.786,74.786,0,0,0,19.592,19.817Z" fill="#bafcce"/>
      <path id="Path_5" data-name="Path 5" d="M285.77,212.915a75.141,75.141,0,0,0-92.427-92.426,75.154,75.154,0,0,1-6.466,98.892A75.155,75.155,0,0,1,285.77,212.915Z" fill="#bafcce"/>
      <path id="Path_6" data-name="Path 6" d="M392.057,319.2a75.141,75.141,0,0,0-92.427-92.427,75.154,75.154,0,0,1-6.466,98.892A75.156,75.156,0,0,1,392.057,319.2Z" fill="#bafcce"/>
      <path id="Path_7" data-name="Path 7" d="M399.452,325.669a75.137,75.137,0,0,0-127.261,40.777A74.812,74.812,0,0,1,285,408.432a75.693,75.693,0,0,1-1.03,12.367,75.156,75.156,0,1,0,115.478-95.13Z" fill="#bafcce"/>
    </g>
    <path id="Path_8" data-name="Path 8" d="M432.314,234.352s45.335-23.334,69.336-76c-28-28.668-92.671-23.3-92.671-23.3s31-57.539,6.988-125.042c-87.992,0-134.327,72.336-134.327,72.336S272.973,45.01,240.9,25.67c-42,39.335-35.336,92.121-35.336,92.121l.346.374a75.1,75.1,0,0,1,81.4,87.873L305.3,225.46a75.123,75.123,0,0,1,86.771,93.673l.293.316a74.524,74.524,0,0,1,16.782,18.117l.006.007s49.159,0,77.16-23.057C484.317,283.342,432.314,234.352,432.314,234.352Z" fill="#a5dc69"/>
    <path id="Path_18" data-name="Path 18" d="M75.153,0A75.153,75.153,0,1,1,0,75.153,75.153,75.153,0,0,1,75.153,0Z" transform="translate(9.962 351.725)" fill="#bafcce"/>
    <path id="Path_9" data-name="Path 9" d="M98.173,446.52l-.241.236a10,10,0,0,0,13.961,14.324l.452-.447A10,10,0,1,0,98.173,446.52Z"/>
    <path id="Path_10" data-name="Path 10" d="M73.9,451.88a23.132,23.132,0,0,1-8.41-38.077,10,10,0,0,0-14.143-14.144,43.137,43.137,0,0,0,15.7,71.009A10,10,0,0,0,73.9,451.88Z"/>
    <path id="Path_11" data-name="Path 11" d="M113.974,146.478a27.975,27.975,0,0,1,39.518,0,10,10,0,1,0,14.142-14.144,48,48,0,0,0-67.8,0,10,10,0,0,0,14.144,14.144Z"/>
    <path id="Path_12" data-name="Path 12" d="M313.838,346.343a10,10,0,0,0,14.144,14.144,25.949,25.949,0,0,1,36.654,0,10,10,0,0,0,14.142-14.144A45.973,45.973,0,0,0,313.838,346.343Z"/>
    <path id="Path_13" data-name="Path 13" d="M221.5,254.009a25.81,25.81,0,0,1,36.458,0A10,10,0,0,0,272.1,239.865a45.832,45.832,0,0,0-64.742,0A10,10,0,0,0,221.5,254.009Z"/>
    <path id="Path_14" data-name="Path 14" d="M123.566,282.127a10,10,0,0,0,14.142-14.144,48.29,48.29,0,0,0-68.3,0,10,10,0,0,0,14.143,14.144,28.292,28.292,0,0,1,40.012,0Z"/>
    <path id="Path_15" data-name="Path 15" d="M177.28,375.849a10,10,0,0,0,14.143,14.144,26.491,26.491,0,0,1,37.42,0,10,10,0,1,0,14.142-14.144A46.513,46.513,0,0,0,177.28,375.849Z"/>
    <path id="Path_16" data-name="Path 16" d="M509.153,384.546a49.223,49.223,0,0,0-61.841-31.8,41.072,41.072,0,0,0-17.229,10.783,84.335,84.335,0,0,0-4.923-16.978c18-1.956,47.29-7.663,67.514-24.317a10,10,0,0,0,3.623-8.36c-1.7-26.557-31.955-61.15-47.934-77.679,15.889-10.857,44.56-34.578,62.388-73.7a10,10,0,0,0-1.946-11.134c-21.974-22.5-62.085-26.41-84.5-26.705,8.194-22.483,19.078-67.409,1.081-118A10,10,0,0,0,415.968.012c-38.275,0-75.071,13.266-106.412,38.362a195.624,195.624,0,0,0-24.727,23.639c-6.4-13.823-18.244-32.528-38.762-44.9a10,10,0,0,0-12,1.265C200.724,49.6,195.5,88.238,195.178,107.32c-.413-.43-.81-.871-1.232-1.294A85.155,85.155,0,0,0,70.765,223.568,85.118,85.118,0,0,0,37.727,356.133,85.149,85.149,0,1,0,145.332,487.1h0a85.232,85.232,0,0,0,10.532-12.826,85.117,85.117,0,0,0,132.551-33.026,85.185,85.185,0,0,0,113.034,2.436,70.977,70.977,0,0,0,69.571,15.028,58.97,58.97,0,0,0,38.133-74.161ZM346.308,293.655a85.44,85.44,0,0,0-24.844,3.663,85.587,85.587,0,0,0-5.419-63.127,65.062,65.062,0,0,1,68.6,68.561A84.772,84.772,0,0,0,346.308,293.655Zm-146.374,30.2a62.9,62.9,0,0,1-11.791-11.938,84.715,84.715,0,0,0-11.663-53.714,65.109,65.109,0,0,1,103.078-37.453l.046.035a63.521,63.521,0,0,1,12.154,12.154l.034.044a65.108,65.108,0,0,1-37.208,103.023,84.651,84.651,0,0,0-54.65-12.151Zm59.464-177A65.3,65.3,0,0,1,278.352,196.5a85.574,85.574,0,0,0-63.126-5.418,85.621,85.621,0,0,0-5.433-63.18A65.3,65.3,0,0,1,259.4,146.859ZM242.147,38.627c22.767,17.608,29.685,45.7,29.752,45.98a10.005,10.005,0,0,0,18.152,3.147c.111-.172,11.322-17.348,32.554-34.209C348.64,32.87,377.6,21.664,408.783,20.178c17.876,59.347-8.341,109.626-8.608,110.128a10,10,0,0,0,9.624,14.71c.561-.048,52.827-4.037,79.524,15.82-22.8,44.063-61.2,64.421-61.586,64.622a10,10,0,0,0-2.281,16.17c17.48,16.469,44.8,48.087,50.036,68.491-20.125,13.574-49.641,16.591-61.318,17.261a86.418,86.418,0,0,0-7.652-8.784c-1.087-1.087-2.2-2.134-3.336-3.154a84.989,84.989,0,0,0-45.962-92.594A121.3,121.3,0,0,1,437.067,192.8a10,10,0,0,0,0-20,141.306,141.306,0,0,0-101.281,42.857,85.344,85.344,0,0,0-32.394-.011q-1.527-1.7-3.156-3.336t-3.336-3.156a85.215,85.215,0,0,0,1.129-24.6,206.908,206.908,0,0,1,47.42-76.888,10,10,0,0,0-14.34-13.945,226.553,226.553,0,0,0-42.091,60.261,84.864,84.864,0,0,0-73.83-46.15C215.434,93.47,219.054,63.877,242.147,38.627ZM87.66,212.31A65.156,65.156,0,0,1,179.8,120.166a66.133,66.133,0,0,1,5.537,6.314c.092.122.185.243.282.361a65.148,65.148,0,0,1-5.814,85.465l-.005.005-.006.006a64.645,64.645,0,0,1-31.507,17.407,84.638,84.638,0,0,0-44.732-12.737,85.674,85.674,0,0,0-9.9.594A64.992,64.992,0,0,1,87.66,212.31ZM38.4,302.144a65.156,65.156,0,1,1,97.619,56.472,85.383,85.383,0,0,0-79.849-11.807A65.175,65.175,0,0,1,38.4,302.144Zm.642,170.8a65.152,65.152,0,0,1,89.239-94.864l.078.067c.961.854,1.908,1.731,2.829,2.652a65.157,65.157,0,0,1-92.146,92.145Zm170.8.635a65.168,65.168,0,0,1-44.659-17.764,85.385,85.385,0,0,0-11.812-79.856,65.149,65.149,0,1,1,56.471,97.62Zm90.394-48.7a65.425,65.425,0,0,1-5.815-6.688,84.618,84.618,0,0,0-11.655-53.7,65.131,65.131,0,0,1,102.951-37.567c.109.09.221.176.335.262a66.15,66.15,0,0,1,6.328,5.548,65.156,65.156,0,0,1-92.144,92.144Zm187.423-4.512a38.706,38.706,0,0,1-22.747,19.283,51.029,51.029,0,0,1-49.822-10.625,84.361,84.361,0,0,0,9.3-16.169,35.089,35.089,0,0,0,40.3,14.551,30.055,30.055,0,0,0,19.436-37.8,10,10,0,0,0-19.045,6.112,10.055,10.055,0,0,1-6.5,12.645,15.068,15.068,0,0,1-18.952-9.743,21.36,21.36,0,0,1,13.8-26.834,29.208,29.208,0,0,1,36.686,18.863A38.7,38.7,0,0,1,487.659,420.374Z"/>
    <path id="Path_17" data-name="Path 17" d="M367.716,85.344a9.955,9.955,0,0,0,5.849-1.9l.227-.163a10,10,0,0,0-11.714-16.212l-.227.163a10,10,0,0,0,5.865,18.108Z"/>
  </g>
</svg>
