<svg xmlns="http://www.w3.org/2000/svg" width="272" height="272" viewBox="0 0 272 272"><g transform="translate(-14 -12.184)"><circle cx="136" cy="136" r="136" transform="translate(14 12.184)" fill="#76c2af"/><g transform="translate(129.932 144.225)"><path d="M145.645,145.533c-11.158,0-20.2,3.1-20.2,6.925v95.51c1.293,1.162,7.766,3.853,20.2,3.853s18.912-2.691,20.206-3.853v-95.51C165.851,148.634,156.8,145.533,145.645,145.533Z" transform="translate(-125.44 -145.533)" fill="#350619"/></g><g transform="translate(126.307 41.66)" opacity="0.8"><path d="M168.492,101.259c-.064-3.795-1.718-7.558-3.839-10.9-.014-.021-.026-.043-.039-.063l-.089-.137c-.1-.157-.2-.313-.307-.467a80.9,80.9,0,0,0-7.847-9.508c-1.26-1.414-1.856-4.391-2.117-7.465V32.978a2.33,2.33,0,0,0,1.576-2.2V26.8a2.33,2.33,0,0,0-1.576-2.2V21.363a88.029,88.029,0,0,0-18.78,0V24.6a2.33,2.33,0,0,0-1.575,2.2v3.972a2.331,2.331,0,0,0,1.575,2.2v39.5c-.25,3.16-.843,6.256-2.137,7.707-3.172,3.562-12.128,12.365-12.128,21.3h0a27.5,27.5,0,0,0-.177,3.111V226.346c0,3.862,10.67,6.994,23.831,6.994s23.832-3.132,23.832-6.994V104.6A27.747,27.747,0,0,0,168.492,101.259Z" transform="translate(-121.033 -20.861)" fill="#0b351e"/></g><g transform="translate(143.9 45.287)" opacity="0.8"><path d="M168.684,102.479l-.022-.188,0-.189c-.045-2.631-1.147-5.665-3.285-9.031l-.111-.174c-.086-.135-.174-.269-.273-.416a64.951,64.951,0,0,0-6.432-7.89c-.414-.451-.785-.856-1.1-1.212-1.667-1.871-2.627-4.912-3.023-9.571l-.014-.154V31.168l1.576-.54V28.511l-1.576-.54V25.466c-1.928-.132-3.834-.2-5.762-.2s-3.834.065-5.765.2v2.505l-.474.162q.787-.015,1.577-.016c1.928,0,3.833.065,5.762.2V30.82l1.575.54v2.118l-1.575.54V76.5l.013.153c.4,4.659,1.356,7.7,3.022,9.571.317.356.689.761,1.1,1.213a64.936,64.936,0,0,1,6.432,7.889c.1.147.188.282.273.417l.112.174c2.138,3.366,3.24,6.4,3.284,9.031l0,.188.023.188a24.092,24.092,0,0,1,.176,2.9V228.67a13.566,13.566,0,0,0,4.663-2.028V105.381A24.113,24.113,0,0,0,168.684,102.479Z" transform="translate(-142.418 -25.269)" fill="#486654"/></g><g transform="translate(129.932 144.225)" opacity="0.6"><path d="M145.645,145.533c-11.158,0-20.2,3.1-20.2,6.925v95.51c1.293,1.162,7.766,3.853,20.2,3.853s18.912-2.691,20.206-3.853v-95.51C165.851,148.634,156.8,145.533,145.645,145.533Z" transform="translate(-125.44 -145.533)" fill="#350619"/></g><g transform="translate(145.882 167.188)"><path d="M77.677,43.359A5.6,5.6,0,0,0,72.2,45.2a5.583,5.583,0,0,1,10.731-3.064,6.233,6.233,0,0,0-3.432,2.01,5.553,5.553,0,0,0-1.826-.784Z" transform="translate(-18.448 -14.037)" fill="#6c6cad"/><path d="M57.56,50.81a8.99,8.99,0,0,1,.215-1.734A5.9,5.9,0,0,1,66.1,45.031" transform="translate(-12.844 -16.433)" fill="none" stroke="#07182b" stroke-linecap="round" stroke-linejoin="round" stroke-width="4"/><path d="M78.927,57.641a5.9,5.9,0,0,0-6.447-.613" transform="translate(-18.62 -21.039)" fill="none" stroke="#07182b" stroke-linecap="round" stroke-linejoin="round" stroke-width="4"/><path d="M83.083,41.951a5.89,5.89,0,1,0-4.989,7.354" transform="translate(-18.24 -13.769)" fill="none" stroke="#07182b" stroke-linecap="round" stroke-linejoin="round" stroke-width="4"/><path d="M59,60.043a8.99,8.99,0,0,1,1.134-1.373,5.9,5.9,0,0,1,9.193,1.079" transform="translate(-13.401 -21.271)" fill="none" stroke="#07182b" stroke-linecap="round" stroke-linejoin="round" stroke-width="4"/><path d="M58.057,38.043a8.991,8.991,0,0,0-1.134-1.373,5.9,5.9,0,0,0-9.193,1.079" transform="translate(-9.038 -12.754)" fill="none" stroke="#07182b" stroke-linecap="round" stroke-linejoin="round" stroke-width="4"/><path d="M24.383,97.4" transform="translate(0 -36.934)" fill="none" stroke="#07182b" stroke-linecap="round" stroke-linejoin="round" stroke-width="4"/><path d="M71.575,40.811l3.72-3.279c.527-.527.147-1.777-.386-2.3h0c-.527-.527-1.777-.913-2.3-.386L69.32,38.567" transform="translate(-17.397 -12.617)" fill="#997f56" stroke="#7c6233" stroke-linecap="round" stroke-linejoin="round" stroke-width="4"/><path d="M48,27.677V36.87L60.558,44.6l19.52-5.265-.208-7.98L59.032,24Z" transform="translate(-9.143 -8.517)" fill="#efe1b4"/><path d="M77.062,69A16.229,16.229,0,0,0,74,78.806" transform="translate(-19.206 -25.938)" fill="none" stroke="#cae8ea" stroke-linecap="round" stroke-linejoin="round" stroke-width="4"/><path d="M69,69a16.229,16.229,0,0,1,3.064,9.806" transform="translate(-17.273 -25.938)" fill="none" stroke="#cae8ea" stroke-linecap="round" stroke-linejoin="round" stroke-width="4"/><line y2="23.289" transform="translate(54.792 51.642)" fill="none" stroke="#cae8ea" stroke-linecap="round" stroke-linejoin="round" stroke-width="4"/><path d="M75.244,68a18.129,18.129,0,0,0-3.377,10.419A18.128,18.128,0,0,0,68.49,68l3.377,1.839Z" transform="translate(-17.075 -25.551)" fill="#cae8ea"/><path d="M75.58,122.516s-4.29-1.839-4.29-5.516c0,3.677-4.29,5.516-4.29,5.516" transform="translate(-16.498 -44.52)" fill="#a8c9cc" stroke="#a8c9cc" stroke-linecap="round" stroke-linejoin="round" stroke-width="4"/><line x2="29.418" transform="translate(40.083 77.995)" fill="none" stroke="#a8c9cc" stroke-linecap="round" stroke-linejoin="round" stroke-width="4"/><line x2="3.677" transform="translate(52.953 73.705)" fill="#a8c9cc" stroke="#a8c9cc" stroke-linecap="round" stroke-linejoin="round" stroke-width="4"/><path d="M52.18,2V4.648a7.354,7.354,0,0,1-.613,2.96A46.02,46.02,0,0,0,47.89,29.579c1.226,12.87,15.935,13.483,15.935,13.483s14.709-.613,15.935-13.483A45.715,45.715,0,0,0,76.082,7.608a7.354,7.354,0,0,1-.613-2.96V2" transform="translate(-9.033 0)" fill="#a7e8ea" opacity="0.51"/><path d="M68.789,6.652a1.839,1.839,0,0,1,1.777-2.2h1.226A2.4,2.4,0,0,0,74.243,2H52.18V4.648a7.354,7.354,0,0,1-.613,2.96A46.02,46.02,0,0,0,47.89,29.579a13.753,13.753,0,0,0,2.243,6.5c3.119-1.128,3.144-3.457,2.991-4.48-.037-.159-.074-.313-.1-.478h0c-.092-.49-.172-.993-.221-1.52A45.714,45.714,0,0,1,56.476,7.632,7.8,7.8,0,0,0,56.893,6a1.839,1.839,0,0,1,1.839-1.52h1.514a1.839,1.839,0,0,1,1.839,1.685,14.366,14.366,0,0,0,.178,1.471,94.322,94.322,0,0,1,1.661,21.947c0,.552-.061,1.079-.11,1.587.123,1.287.613,2.954,2.451,3.316a5.457,5.457,0,0,0,5.975-4.9A52.094,52.094,0,0,0,69.028,7.608a5.994,5.994,0,0,1-.239-.956Z" transform="translate(-9.033 0)" fill="#fff" opacity="0.51"/><circle cx="2.451" cy="2.451" r="2.451" transform="translate(52.34 10.58)" fill="#56222e"/><path d="M78.03,22.563a3.61,3.61,0,0,0-3.61,5.712h0s2.531,4.7-3.254,6.87a4.9,4.9,0,0,1-5.785-1.808c-1.446-2.17.723-3.616.723-5.785a2.17,2.17,0,0,0-4.339,0c0,2.17,2.17,3.616.723,5.785A4.9,4.9,0,0,1,56.7,35.145c-5.785-2.17-3.254-6.87-3.254-6.87h0a3.616,3.616,0,0,0-3.61-5.712L48,29.359c0,8.151,1.226,13.667,6.129,17.957,3.328,2.911,9.806,3.677,9.806,3.677s6.245-1.054,9.806-3.677c6.49-4.78,5.969-10.474,6.129-17.957Z" transform="translate(-9.143 -7.932)" fill="#56222e"/><g transform="translate(38.863 14.577)" opacity="0.51"><path d="M53.232,39.546c-.037-.159-.074-.313-.1-.478h0c-.092-.49-.172-.993-.221-1.52a43.183,43.183,0,0,1,.846-13.115,3.616,3.616,0,0,0-3.91-1.839L48.1,29.029c-.031.282-.061.57-.086.858.037,5.767.735,10.2,3,13.8a3.806,3.806,0,0,0,2.225-4.143Z" transform="translate(-48.01 -22.521)" fill="#fff"/><path d="M73.876,40.926c.123,1.287.613,2.954,2.451,3.316a5.457,5.457,0,0,0,5.975-4.9c.074-1.017.11-2.01.123-2.991a8.832,8.832,0,0,1-1.318.613,4.9,4.9,0,0,1-5.785-1.808c-1.446-2.17.723-3.616.723-5.785a2.17,2.17,0,0,0-2.17-2.157h-.2a92.089,92.089,0,0,1,.294,12.129C73.95,39.89,73.907,40.417,73.876,40.926Z" transform="translate(-57.948 -24.336)" fill="#fff"/></g><path d="M79.759,40.381C78.533,50.56,63.824,51.044,63.824,51.044S49.115,50.56,47.89,40.381c-.08-.656-.123-1.293-.147-1.931a40.283,40.283,0,0,0,.147,5.24c1.226,12.87,15.935,13.483,15.935,13.483S78.533,56.56,79.759,43.69a40.283,40.283,0,0,0,.147-5.24C79.881,39.087,79.838,39.725,79.759,40.381Z" transform="translate(-9.032 -14.111)" fill="#902a2b"/><path d="M48.115,45.136c.043.215.086.429.129.613s.074.3.11.447.092.325.141.484.1.331.159.49.086.227.123.337a12.938,12.938,0,0,0,1.367,2.66h0a4.351,4.351,0,0,0,2.74-2.323,10.05,10.05,0,0,1-4.976-7.465c-.08-.656-.123-1.293-.147-1.931v3.6c0,.545.061,1.091.116,1.642.037.368.086.729.141,1.079A1.889,1.889,0,0,1,48.115,45.136Z" transform="translate(-9.05 -14.111)" fill="#aa2e34"/><path d="M53.157,2V4.648a7.354,7.354,0,0,1-.613,2.96,45.874,45.874,0,0,0-2.3,6.65" transform="translate(-10.01 0)" fill="none" stroke="#a8c9cc" stroke-linecap="round" stroke-linejoin="round" stroke-width="4"/><path d="M95.917,14.257a45.872,45.872,0,0,0-2.3-6.65A7.354,7.354,0,0,1,93,4.648V2" transform="translate(-26.564 0)" fill="none" stroke="#a8c9cc" stroke-linecap="round" stroke-linejoin="round" stroke-width="4"/><path d="M49.269,22A44.016,44.016,0,0,0,47.9,37.322C49.122,50.192,63.831,50.8,63.831,50.8s14.709-.613,15.935-13.483A44.016,44.016,0,0,0,78.393,22" transform="translate(-9.039 -7.743)" fill="none" stroke="#3f1621" stroke-linecap="round" stroke-miterlimit="10" stroke-width="4"/><circle cx="1.226" cy="1.226" r="1.226" transform="translate(53.566 6.29)" fill="#fff" opacity="0.51"/><path d="M75.8,18.453a2.451,2.451,0,0,0-3.475-2.225c.208,1.312.429,2.874.613,4.633A2.409,2.409,0,0,0,75.8,18.453Z" transform="translate(-18.562 -5.422)" fill="#fff" opacity="0.51"/></g></g></svg>