<svg xmlns="http://www.w3.org/2000/svg" width="220" height="220" viewBox="0 0 220 220"><g transform="translate(5856.257 5956.257)"><g transform="translate(-5856.257 -5956.257)" fill="none" stroke="#fff" stroke-width="7"><circle cx="110" cy="110" r="110" stroke="none"/><circle cx="110" cy="110" r="106.5" fill="none"/></g><g transform="translate(-5896.415 -5906.546)"><g transform="translate(117.334)"><path d="M152.418,105.3V65.026A32.6,32.6,0,0,0,182.49,32.573c0-7.082-3.784-18.845-6.551-27.436l-1.083-3.383A2.507,2.507,0,0,0,172.466,0H127.729a2.508,2.508,0,0,0-2.346,1.619c-2.421,6.416-8.049,22.264-8.049,30.959a32.6,32.6,0,0,0,30.072,32.453v40.277c-12.575.511-25.06,4.847-25.06,12.48a2.506,2.506,0,0,0,2.506,2.5h50.12a2.507,2.507,0,0,0,2.506-2.506C177.478,110.15,164.989,105.814,152.418,105.3ZM122.471,35.084c-.075-.827-.125-1.659-.125-2.506,0-6.085,3.574-17.928,7.122-27.566h41.169l.531,1.669c2.511,7.8,6.31,19.6,6.31,25.9,0,.847-.05,1.679-.125,2.506Z" transform="translate(-117.334)" fill="#fff"/></g></g></g></svg>