<svg xmlns="http://www.w3.org/2000/svg" width="1000" height="668" viewBox="0 0 1000 668"><g transform="translate(3953 -6027)"><path d="M0,0H1000V668H0Z" transform="translate(-3953 6027)" fill="#48575e"/><g transform="translate(-3559.516 6276.521)"><path d="M209.359,6H3.673A3.672,3.672,0,0,0,0,9.673V171.284a3.672,3.672,0,0,0,3.673,3.673H209.359a3.672,3.672,0,0,0,3.673-3.673V9.673A3.672,3.672,0,0,0,209.359,6Zm-3.673,161.611H7.346V13.346H205.687Z" transform="translate(0 -6)" fill="#fff"/><path d="M30.886,57.91A20.455,20.455,0,1,0,10.431,37.455,20.476,20.476,0,0,0,30.886,57.91Zm0-33.564A13.109,13.109,0,1,1,17.777,37.458,13.126,13.126,0,0,1,30.886,24.346Z" transform="translate(27.882 23.403)" fill="#fff"/><path d="M9.674,107.476a3.664,3.664,0,0,0,2.424-.915L72.016,53.811l37.839,37.835a3.672,3.672,0,0,0,5.194-5.194L97.392,68.8l33.722-36.928,41.361,37.916a3.673,3.673,0,1,0,4.962-5.418l-44.076-40.4A3.788,3.788,0,0,0,130.717,23a3.68,3.68,0,0,0-2.549,1.194L92.2,63.6,74.774,46.175a3.676,3.676,0,0,0-5.025-.162l-62.5,55.032a3.673,3.673,0,0,0,2.428,6.431Z" transform="translate(16.036 39.442)" fill="#eb7171"/></g></g></svg>